%TF.GenerationSoftware,KiCad,Pcbnew,(5.1.9)-1*%
%TF.CreationDate,2021-11-25T20:23:30+01:00*%
%TF.ProjectId,Berlin_Uhr,4265726c-696e-45f5-9568-722e6b696361,rev?*%
%TF.SameCoordinates,Original*%
%TF.FileFunction,Paste,Bot*%
%TF.FilePolarity,Positive*%
%FSLAX46Y46*%
G04 Gerber Fmt 4.6, Leading zero omitted, Abs format (unit mm)*
G04 Created by KiCad (PCBNEW (5.1.9)-1) date 2021-11-25 20:23:30*
%MOMM*%
%LPD*%
G01*
G04 APERTURE LIST*
%ADD10R,1.000000X1.500000*%
G04 APERTURE END LIST*
%TO.C,D26*%
G36*
G01*
X157750000Y-70602000D02*
X157750000Y-69352000D01*
G75*
G02*
X158000000Y-69102000I250000J0D01*
G01*
X158750000Y-69102000D01*
G75*
G02*
X159000000Y-69352000I0J-250000D01*
G01*
X159000000Y-70602000D01*
G75*
G02*
X158750000Y-70852000I-250000J0D01*
G01*
X158000000Y-70852000D01*
G75*
G02*
X157750000Y-70602000I0J250000D01*
G01*
G37*
G36*
G01*
X154950000Y-70602000D02*
X154950000Y-69352000D01*
G75*
G02*
X155200000Y-69102000I250000J0D01*
G01*
X155950000Y-69102000D01*
G75*
G02*
X156200000Y-69352000I0J-250000D01*
G01*
X156200000Y-70602000D01*
G75*
G02*
X155950000Y-70852000I-250000J0D01*
G01*
X155200000Y-70852000D01*
G75*
G02*
X154950000Y-70602000I0J250000D01*
G01*
G37*
%TD*%
%TO.C,D25*%
G36*
G01*
X182515000Y-70602000D02*
X182515000Y-69352000D01*
G75*
G02*
X182765000Y-69102000I250000J0D01*
G01*
X183515000Y-69102000D01*
G75*
G02*
X183765000Y-69352000I0J-250000D01*
G01*
X183765000Y-70602000D01*
G75*
G02*
X183515000Y-70852000I-250000J0D01*
G01*
X182765000Y-70852000D01*
G75*
G02*
X182515000Y-70602000I0J250000D01*
G01*
G37*
G36*
G01*
X179715000Y-70602000D02*
X179715000Y-69352000D01*
G75*
G02*
X179965000Y-69102000I250000J0D01*
G01*
X180715000Y-69102000D01*
G75*
G02*
X180965000Y-69352000I0J-250000D01*
G01*
X180965000Y-70602000D01*
G75*
G02*
X180715000Y-70852000I-250000J0D01*
G01*
X179965000Y-70852000D01*
G75*
G02*
X179715000Y-70602000I0J250000D01*
G01*
G37*
%TD*%
%TO.C,D24*%
G36*
G01*
X157750000Y-95621000D02*
X157750000Y-94371000D01*
G75*
G02*
X158000000Y-94121000I250000J0D01*
G01*
X158750000Y-94121000D01*
G75*
G02*
X159000000Y-94371000I0J-250000D01*
G01*
X159000000Y-95621000D01*
G75*
G02*
X158750000Y-95871000I-250000J0D01*
G01*
X158000000Y-95871000D01*
G75*
G02*
X157750000Y-95621000I0J250000D01*
G01*
G37*
G36*
G01*
X154950000Y-95621000D02*
X154950000Y-94371000D01*
G75*
G02*
X155200000Y-94121000I250000J0D01*
G01*
X155950000Y-94121000D01*
G75*
G02*
X156200000Y-94371000I0J-250000D01*
G01*
X156200000Y-95621000D01*
G75*
G02*
X155950000Y-95871000I-250000J0D01*
G01*
X155200000Y-95871000D01*
G75*
G02*
X154950000Y-95621000I0J250000D01*
G01*
G37*
%TD*%
%TO.C,D23*%
G36*
G01*
X182515000Y-95621000D02*
X182515000Y-94371000D01*
G75*
G02*
X182765000Y-94121000I250000J0D01*
G01*
X183515000Y-94121000D01*
G75*
G02*
X183765000Y-94371000I0J-250000D01*
G01*
X183765000Y-95621000D01*
G75*
G02*
X183515000Y-95871000I-250000J0D01*
G01*
X182765000Y-95871000D01*
G75*
G02*
X182515000Y-95621000I0J250000D01*
G01*
G37*
G36*
G01*
X179715000Y-95621000D02*
X179715000Y-94371000D01*
G75*
G02*
X179965000Y-94121000I250000J0D01*
G01*
X180715000Y-94121000D01*
G75*
G02*
X180965000Y-94371000I0J-250000D01*
G01*
X180965000Y-95621000D01*
G75*
G02*
X180715000Y-95871000I-250000J0D01*
G01*
X179965000Y-95871000D01*
G75*
G02*
X179715000Y-95621000I0J250000D01*
G01*
G37*
%TD*%
%TO.C,D22*%
G36*
G01*
X191405000Y-120640000D02*
X191405000Y-119390000D01*
G75*
G02*
X191655000Y-119140000I250000J0D01*
G01*
X192405000Y-119140000D01*
G75*
G02*
X192655000Y-119390000I0J-250000D01*
G01*
X192655000Y-120640000D01*
G75*
G02*
X192405000Y-120890000I-250000J0D01*
G01*
X191655000Y-120890000D01*
G75*
G02*
X191405000Y-120640000I0J250000D01*
G01*
G37*
G36*
G01*
X188605000Y-120640000D02*
X188605000Y-119390000D01*
G75*
G02*
X188855000Y-119140000I250000J0D01*
G01*
X189605000Y-119140000D01*
G75*
G02*
X189855000Y-119390000I0J-250000D01*
G01*
X189855000Y-120640000D01*
G75*
G02*
X189605000Y-120890000I-250000J0D01*
G01*
X188855000Y-120890000D01*
G75*
G02*
X188605000Y-120640000I0J250000D01*
G01*
G37*
%TD*%
%TO.C,D21*%
G36*
G01*
X182007000Y-120640000D02*
X182007000Y-119390000D01*
G75*
G02*
X182257000Y-119140000I250000J0D01*
G01*
X183007000Y-119140000D01*
G75*
G02*
X183257000Y-119390000I0J-250000D01*
G01*
X183257000Y-120640000D01*
G75*
G02*
X183007000Y-120890000I-250000J0D01*
G01*
X182257000Y-120890000D01*
G75*
G02*
X182007000Y-120640000I0J250000D01*
G01*
G37*
G36*
G01*
X179207000Y-120640000D02*
X179207000Y-119390000D01*
G75*
G02*
X179457000Y-119140000I250000J0D01*
G01*
X180207000Y-119140000D01*
G75*
G02*
X180457000Y-119390000I0J-250000D01*
G01*
X180457000Y-120640000D01*
G75*
G02*
X180207000Y-120890000I-250000J0D01*
G01*
X179457000Y-120890000D01*
G75*
G02*
X179207000Y-120640000I0J250000D01*
G01*
G37*
%TD*%
%TO.C,D20*%
G36*
G01*
X182515000Y-145659000D02*
X182515000Y-144409000D01*
G75*
G02*
X182765000Y-144159000I250000J0D01*
G01*
X183515000Y-144159000D01*
G75*
G02*
X183765000Y-144409000I0J-250000D01*
G01*
X183765000Y-145659000D01*
G75*
G02*
X183515000Y-145909000I-250000J0D01*
G01*
X182765000Y-145909000D01*
G75*
G02*
X182515000Y-145659000I0J250000D01*
G01*
G37*
G36*
G01*
X179715000Y-145659000D02*
X179715000Y-144409000D01*
G75*
G02*
X179965000Y-144159000I250000J0D01*
G01*
X180715000Y-144159000D01*
G75*
G02*
X180965000Y-144409000I0J-250000D01*
G01*
X180965000Y-145659000D01*
G75*
G02*
X180715000Y-145909000I-250000J0D01*
G01*
X179965000Y-145909000D01*
G75*
G02*
X179715000Y-145659000I0J250000D01*
G01*
G37*
%TD*%
%TO.C,D19*%
G36*
G01*
X157877000Y-145659000D02*
X157877000Y-144409000D01*
G75*
G02*
X158127000Y-144159000I250000J0D01*
G01*
X158877000Y-144159000D01*
G75*
G02*
X159127000Y-144409000I0J-250000D01*
G01*
X159127000Y-145659000D01*
G75*
G02*
X158877000Y-145909000I-250000J0D01*
G01*
X158127000Y-145909000D01*
G75*
G02*
X157877000Y-145659000I0J250000D01*
G01*
G37*
G36*
G01*
X155077000Y-145659000D02*
X155077000Y-144409000D01*
G75*
G02*
X155327000Y-144159000I250000J0D01*
G01*
X156077000Y-144159000D01*
G75*
G02*
X156327000Y-144409000I0J-250000D01*
G01*
X156327000Y-145659000D01*
G75*
G02*
X156077000Y-145909000I-250000J0D01*
G01*
X155327000Y-145909000D01*
G75*
G02*
X155077000Y-145659000I0J250000D01*
G01*
G37*
%TD*%
%TO.C,D18*%
G36*
G01*
X172990000Y-120640000D02*
X172990000Y-119390000D01*
G75*
G02*
X173240000Y-119140000I250000J0D01*
G01*
X173990000Y-119140000D01*
G75*
G02*
X174240000Y-119390000I0J-250000D01*
G01*
X174240000Y-120640000D01*
G75*
G02*
X173990000Y-120890000I-250000J0D01*
G01*
X173240000Y-120890000D01*
G75*
G02*
X172990000Y-120640000I0J250000D01*
G01*
G37*
G36*
G01*
X170190000Y-120640000D02*
X170190000Y-119390000D01*
G75*
G02*
X170440000Y-119140000I250000J0D01*
G01*
X171190000Y-119140000D01*
G75*
G02*
X171440000Y-119390000I0J-250000D01*
G01*
X171440000Y-120640000D01*
G75*
G02*
X171190000Y-120890000I-250000J0D01*
G01*
X170440000Y-120890000D01*
G75*
G02*
X170190000Y-120640000I0J250000D01*
G01*
G37*
%TD*%
%TO.C,D17*%
G36*
G01*
X164100000Y-120640000D02*
X164100000Y-119390000D01*
G75*
G02*
X164350000Y-119140000I250000J0D01*
G01*
X165100000Y-119140000D01*
G75*
G02*
X165350000Y-119390000I0J-250000D01*
G01*
X165350000Y-120640000D01*
G75*
G02*
X165100000Y-120890000I-250000J0D01*
G01*
X164350000Y-120890000D01*
G75*
G02*
X164100000Y-120640000I0J250000D01*
G01*
G37*
G36*
G01*
X161300000Y-120640000D02*
X161300000Y-119390000D01*
G75*
G02*
X161550000Y-119140000I250000J0D01*
G01*
X162300000Y-119140000D01*
G75*
G02*
X162550000Y-119390000I0J-250000D01*
G01*
X162550000Y-120640000D01*
G75*
G02*
X162300000Y-120890000I-250000J0D01*
G01*
X161550000Y-120890000D01*
G75*
G02*
X161300000Y-120640000I0J250000D01*
G01*
G37*
%TD*%
%TO.C,D16*%
G36*
G01*
X155210000Y-120640000D02*
X155210000Y-119390000D01*
G75*
G02*
X155460000Y-119140000I250000J0D01*
G01*
X156210000Y-119140000D01*
G75*
G02*
X156460000Y-119390000I0J-250000D01*
G01*
X156460000Y-120640000D01*
G75*
G02*
X156210000Y-120890000I-250000J0D01*
G01*
X155460000Y-120890000D01*
G75*
G02*
X155210000Y-120640000I0J250000D01*
G01*
G37*
G36*
G01*
X152410000Y-120640000D02*
X152410000Y-119390000D01*
G75*
G02*
X152660000Y-119140000I250000J0D01*
G01*
X153410000Y-119140000D01*
G75*
G02*
X153660000Y-119390000I0J-250000D01*
G01*
X153660000Y-120640000D01*
G75*
G02*
X153410000Y-120890000I-250000J0D01*
G01*
X152660000Y-120890000D01*
G75*
G02*
X152410000Y-120640000I0J250000D01*
G01*
G37*
%TD*%
%TO.C,D15*%
G36*
G01*
X145685000Y-120640000D02*
X145685000Y-119390000D01*
G75*
G02*
X145935000Y-119140000I250000J0D01*
G01*
X146685000Y-119140000D01*
G75*
G02*
X146935000Y-119390000I0J-250000D01*
G01*
X146935000Y-120640000D01*
G75*
G02*
X146685000Y-120890000I-250000J0D01*
G01*
X145935000Y-120890000D01*
G75*
G02*
X145685000Y-120640000I0J250000D01*
G01*
G37*
G36*
G01*
X142885000Y-120640000D02*
X142885000Y-119390000D01*
G75*
G02*
X143135000Y-119140000I250000J0D01*
G01*
X143885000Y-119140000D01*
G75*
G02*
X144135000Y-119390000I0J-250000D01*
G01*
X144135000Y-120640000D01*
G75*
G02*
X143885000Y-120890000I-250000J0D01*
G01*
X143135000Y-120890000D01*
G75*
G02*
X142885000Y-120640000I0J250000D01*
G01*
G37*
%TD*%
%TO.C,D14*%
G36*
G01*
X136795000Y-120640000D02*
X136795000Y-119390000D01*
G75*
G02*
X137045000Y-119140000I250000J0D01*
G01*
X137795000Y-119140000D01*
G75*
G02*
X138045000Y-119390000I0J-250000D01*
G01*
X138045000Y-120640000D01*
G75*
G02*
X137795000Y-120890000I-250000J0D01*
G01*
X137045000Y-120890000D01*
G75*
G02*
X136795000Y-120640000I0J250000D01*
G01*
G37*
G36*
G01*
X133995000Y-120640000D02*
X133995000Y-119390000D01*
G75*
G02*
X134245000Y-119140000I250000J0D01*
G01*
X134995000Y-119140000D01*
G75*
G02*
X135245000Y-119390000I0J-250000D01*
G01*
X135245000Y-120640000D01*
G75*
G02*
X134995000Y-120890000I-250000J0D01*
G01*
X134245000Y-120890000D01*
G75*
G02*
X133995000Y-120640000I0J250000D01*
G01*
G37*
%TD*%
%TO.C,D13*%
G36*
G01*
X127905000Y-120640000D02*
X127905000Y-119390000D01*
G75*
G02*
X128155000Y-119140000I250000J0D01*
G01*
X128905000Y-119140000D01*
G75*
G02*
X129155000Y-119390000I0J-250000D01*
G01*
X129155000Y-120640000D01*
G75*
G02*
X128905000Y-120890000I-250000J0D01*
G01*
X128155000Y-120890000D01*
G75*
G02*
X127905000Y-120640000I0J250000D01*
G01*
G37*
G36*
G01*
X125105000Y-120640000D02*
X125105000Y-119390000D01*
G75*
G02*
X125355000Y-119140000I250000J0D01*
G01*
X126105000Y-119140000D01*
G75*
G02*
X126355000Y-119390000I0J-250000D01*
G01*
X126355000Y-120640000D01*
G75*
G02*
X126105000Y-120890000I-250000J0D01*
G01*
X125355000Y-120890000D01*
G75*
G02*
X125105000Y-120640000I0J250000D01*
G01*
G37*
%TD*%
%TO.C,D12*%
G36*
G01*
X132985000Y-145659000D02*
X132985000Y-144409000D01*
G75*
G02*
X133235000Y-144159000I250000J0D01*
G01*
X133985000Y-144159000D01*
G75*
G02*
X134235000Y-144409000I0J-250000D01*
G01*
X134235000Y-145659000D01*
G75*
G02*
X133985000Y-145909000I-250000J0D01*
G01*
X133235000Y-145909000D01*
G75*
G02*
X132985000Y-145659000I0J250000D01*
G01*
G37*
G36*
G01*
X130185000Y-145659000D02*
X130185000Y-144409000D01*
G75*
G02*
X130435000Y-144159000I250000J0D01*
G01*
X131185000Y-144159000D01*
G75*
G02*
X131435000Y-144409000I0J-250000D01*
G01*
X131435000Y-145659000D01*
G75*
G02*
X131185000Y-145909000I-250000J0D01*
G01*
X130435000Y-145909000D01*
G75*
G02*
X130185000Y-145659000I0J250000D01*
G01*
G37*
%TD*%
%TO.C,D11*%
G36*
G01*
X119015000Y-120640000D02*
X119015000Y-119390000D01*
G75*
G02*
X119265000Y-119140000I250000J0D01*
G01*
X120015000Y-119140000D01*
G75*
G02*
X120265000Y-119390000I0J-250000D01*
G01*
X120265000Y-120640000D01*
G75*
G02*
X120015000Y-120890000I-250000J0D01*
G01*
X119265000Y-120890000D01*
G75*
G02*
X119015000Y-120640000I0J250000D01*
G01*
G37*
G36*
G01*
X116215000Y-120640000D02*
X116215000Y-119390000D01*
G75*
G02*
X116465000Y-119140000I250000J0D01*
G01*
X117215000Y-119140000D01*
G75*
G02*
X117465000Y-119390000I0J-250000D01*
G01*
X117465000Y-120640000D01*
G75*
G02*
X117215000Y-120890000I-250000J0D01*
G01*
X116465000Y-120890000D01*
G75*
G02*
X116215000Y-120640000I0J250000D01*
G01*
G37*
%TD*%
%TO.C,D10*%
G36*
G01*
X108220000Y-145659000D02*
X108220000Y-144409000D01*
G75*
G02*
X108470000Y-144159000I250000J0D01*
G01*
X109220000Y-144159000D01*
G75*
G02*
X109470000Y-144409000I0J-250000D01*
G01*
X109470000Y-145659000D01*
G75*
G02*
X109220000Y-145909000I-250000J0D01*
G01*
X108470000Y-145909000D01*
G75*
G02*
X108220000Y-145659000I0J250000D01*
G01*
G37*
G36*
G01*
X105420000Y-145659000D02*
X105420000Y-144409000D01*
G75*
G02*
X105670000Y-144159000I250000J0D01*
G01*
X106420000Y-144159000D01*
G75*
G02*
X106670000Y-144409000I0J-250000D01*
G01*
X106670000Y-145659000D01*
G75*
G02*
X106420000Y-145909000I-250000J0D01*
G01*
X105670000Y-145909000D01*
G75*
G02*
X105420000Y-145659000I0J250000D01*
G01*
G37*
%TD*%
%TO.C,D9*%
G36*
G01*
X109490000Y-120640000D02*
X109490000Y-119390000D01*
G75*
G02*
X109740000Y-119140000I250000J0D01*
G01*
X110490000Y-119140000D01*
G75*
G02*
X110740000Y-119390000I0J-250000D01*
G01*
X110740000Y-120640000D01*
G75*
G02*
X110490000Y-120890000I-250000J0D01*
G01*
X109740000Y-120890000D01*
G75*
G02*
X109490000Y-120640000I0J250000D01*
G01*
G37*
G36*
G01*
X106690000Y-120640000D02*
X106690000Y-119390000D01*
G75*
G02*
X106940000Y-119140000I250000J0D01*
G01*
X107690000Y-119140000D01*
G75*
G02*
X107940000Y-119390000I0J-250000D01*
G01*
X107940000Y-120640000D01*
G75*
G02*
X107690000Y-120890000I-250000J0D01*
G01*
X106940000Y-120890000D01*
G75*
G02*
X106690000Y-120640000I0J250000D01*
G01*
G37*
%TD*%
%TO.C,D8*%
G36*
G01*
X100600000Y-120640000D02*
X100600000Y-119390000D01*
G75*
G02*
X100850000Y-119140000I250000J0D01*
G01*
X101600000Y-119140000D01*
G75*
G02*
X101850000Y-119390000I0J-250000D01*
G01*
X101850000Y-120640000D01*
G75*
G02*
X101600000Y-120890000I-250000J0D01*
G01*
X100850000Y-120890000D01*
G75*
G02*
X100600000Y-120640000I0J250000D01*
G01*
G37*
G36*
G01*
X97800000Y-120640000D02*
X97800000Y-119390000D01*
G75*
G02*
X98050000Y-119140000I250000J0D01*
G01*
X98800000Y-119140000D01*
G75*
G02*
X99050000Y-119390000I0J-250000D01*
G01*
X99050000Y-120640000D01*
G75*
G02*
X98800000Y-120890000I-250000J0D01*
G01*
X98050000Y-120890000D01*
G75*
G02*
X97800000Y-120640000I0J250000D01*
G01*
G37*
%TD*%
%TO.C,D7*%
G36*
G01*
X132985000Y-95621000D02*
X132985000Y-94371000D01*
G75*
G02*
X133235000Y-94121000I250000J0D01*
G01*
X133985000Y-94121000D01*
G75*
G02*
X134235000Y-94371000I0J-250000D01*
G01*
X134235000Y-95621000D01*
G75*
G02*
X133985000Y-95871000I-250000J0D01*
G01*
X133235000Y-95871000D01*
G75*
G02*
X132985000Y-95621000I0J250000D01*
G01*
G37*
G36*
G01*
X130185000Y-95621000D02*
X130185000Y-94371000D01*
G75*
G02*
X130435000Y-94121000I250000J0D01*
G01*
X131185000Y-94121000D01*
G75*
G02*
X131435000Y-94371000I0J-250000D01*
G01*
X131435000Y-95621000D01*
G75*
G02*
X131185000Y-95871000I-250000J0D01*
G01*
X130435000Y-95871000D01*
G75*
G02*
X130185000Y-95621000I0J250000D01*
G01*
G37*
%TD*%
%TO.C,D6*%
G36*
G01*
X108220000Y-95621000D02*
X108220000Y-94371000D01*
G75*
G02*
X108470000Y-94121000I250000J0D01*
G01*
X109220000Y-94121000D01*
G75*
G02*
X109470000Y-94371000I0J-250000D01*
G01*
X109470000Y-95621000D01*
G75*
G02*
X109220000Y-95871000I-250000J0D01*
G01*
X108470000Y-95871000D01*
G75*
G02*
X108220000Y-95621000I0J250000D01*
G01*
G37*
G36*
G01*
X105420000Y-95621000D02*
X105420000Y-94371000D01*
G75*
G02*
X105670000Y-94121000I250000J0D01*
G01*
X106420000Y-94121000D01*
G75*
G02*
X106670000Y-94371000I0J-250000D01*
G01*
X106670000Y-95621000D01*
G75*
G02*
X106420000Y-95871000I-250000J0D01*
G01*
X105670000Y-95871000D01*
G75*
G02*
X105420000Y-95621000I0J250000D01*
G01*
G37*
%TD*%
%TO.C,D5*%
G36*
G01*
X108220000Y-70602000D02*
X108220000Y-69352000D01*
G75*
G02*
X108470000Y-69102000I250000J0D01*
G01*
X109220000Y-69102000D01*
G75*
G02*
X109470000Y-69352000I0J-250000D01*
G01*
X109470000Y-70602000D01*
G75*
G02*
X109220000Y-70852000I-250000J0D01*
G01*
X108470000Y-70852000D01*
G75*
G02*
X108220000Y-70602000I0J250000D01*
G01*
G37*
G36*
G01*
X105420000Y-70602000D02*
X105420000Y-69352000D01*
G75*
G02*
X105670000Y-69102000I250000J0D01*
G01*
X106420000Y-69102000D01*
G75*
G02*
X106670000Y-69352000I0J-250000D01*
G01*
X106670000Y-70602000D01*
G75*
G02*
X106420000Y-70852000I-250000J0D01*
G01*
X105670000Y-70852000D01*
G75*
G02*
X105420000Y-70602000I0J250000D01*
G01*
G37*
%TD*%
%TO.C,D4*%
G36*
G01*
X132985000Y-70602000D02*
X132985000Y-69352000D01*
G75*
G02*
X133235000Y-69102000I250000J0D01*
G01*
X133985000Y-69102000D01*
G75*
G02*
X134235000Y-69352000I0J-250000D01*
G01*
X134235000Y-70602000D01*
G75*
G02*
X133985000Y-70852000I-250000J0D01*
G01*
X133235000Y-70852000D01*
G75*
G02*
X132985000Y-70602000I0J250000D01*
G01*
G37*
G36*
G01*
X130185000Y-70602000D02*
X130185000Y-69352000D01*
G75*
G02*
X130435000Y-69102000I250000J0D01*
G01*
X131185000Y-69102000D01*
G75*
G02*
X131435000Y-69352000I0J-250000D01*
G01*
X131435000Y-70602000D01*
G75*
G02*
X131185000Y-70852000I-250000J0D01*
G01*
X130435000Y-70852000D01*
G75*
G02*
X130185000Y-70602000I0J250000D01*
G01*
G37*
%TD*%
%TO.C,D3*%
G36*
G01*
X145806000Y-41646000D02*
X145806000Y-40396000D01*
G75*
G02*
X146056000Y-40146000I250000J0D01*
G01*
X146806000Y-40146000D01*
G75*
G02*
X147056000Y-40396000I0J-250000D01*
G01*
X147056000Y-41646000D01*
G75*
G02*
X146806000Y-41896000I-250000J0D01*
G01*
X146056000Y-41896000D01*
G75*
G02*
X145806000Y-41646000I0J250000D01*
G01*
G37*
G36*
G01*
X143006000Y-41646000D02*
X143006000Y-40396000D01*
G75*
G02*
X143256000Y-40146000I250000J0D01*
G01*
X144006000Y-40146000D01*
G75*
G02*
X144256000Y-40396000I0J-250000D01*
G01*
X144256000Y-41646000D01*
G75*
G02*
X144006000Y-41896000I-250000J0D01*
G01*
X143256000Y-41896000D01*
G75*
G02*
X143006000Y-41646000I0J250000D01*
G01*
G37*
%TD*%
D10*
%TO.C,Q1*%
X145734000Y-59535000D03*
X144334000Y-59535000D03*
X145734000Y-56035000D03*
X144334000Y-56035000D03*
%TD*%
M02*
