M48
; DRILL file {KiCad (5.1.8)-1} date 11/15/21 19:44:19
; FORMAT={-:-/ absolute / inch / decimal}
; #@! TF.CreationDate,2021-11-15T19:44:19+01:00
; #@! TF.GenerationSoftware,Kicad,Pcbnew,(5.1.8)-1
; #@! TF.FileFunction,Plated,1,2,PTH
FMAT,2
INCH
T1C0.0118
T2C0.0157
T3C0.0236
T4C0.0256
%
G90
G05
T1
X4.88Y-4.52
X4.95Y-4.6
X5.11Y-4.2
X5.16Y-4.16
X5.31Y-3.68
X5.35Y-3.77
X5.4Y-2.745
X5.4Y-3.66
X5.4Y-4.405
X5.4498Y-3.66
X5.495Y-3.66
X5.745Y-4.6
X5.85Y-4.06
X6.07Y-4.47
X6.1Y-3.55
X6.15Y-4.6
X6.2248Y-3.8552
X6.32Y-3.83
X6.34Y-3.75
X6.35Y-3.94
X6.35Y-4.4
X5.6114Y-3.5453
X5.6114Y-3.5965
X5.6114Y-3.6476
X5.6114Y-3.6988
X5.6114Y-3.75
X5.6114Y-3.8012
X5.6114Y-3.8524
X5.6114Y-3.9035
X5.6114Y-3.9547
X5.6705Y-3.5453
X5.6705Y-3.5965
X5.6705Y-3.6476
X5.6705Y-3.6988
X5.6705Y-3.75
X5.6705Y-3.8012
X5.6705Y-3.8524
X5.6705Y-3.9035
X5.6705Y-3.9547
X5.7295Y-3.5453
X5.7295Y-3.5965
X5.7295Y-3.6476
X5.7295Y-3.6988
X5.7295Y-3.75
X5.7295Y-3.8012
X5.7295Y-3.8524
X5.7295Y-3.9035
X5.7295Y-3.9547
X5.7886Y-3.5453
X5.7886Y-3.5965
X5.7886Y-3.6476
X5.7886Y-3.6988
X5.7886Y-3.75
X5.7886Y-3.8012
X5.7886Y-3.8524
X5.7886Y-3.9035
X5.7886Y-3.9547
T2
X4.0939Y-4.8339
X4.3Y-4.88
X4.96Y-4.2
X5.0Y-4.15
X5.05Y-4.1
X5.1Y-4.06
X5.12Y-4.6
X5.12Y-4.66
X5.18Y-3.98
X5.215Y-3.46
X5.24Y-4.6
X5.25Y-4.66
X5.2756Y-5.0394
X5.28Y-3.955
X5.3Y-4.9
X5.32Y-4.56
X5.36Y-3.925
X5.38Y-3.81
X5.39Y-3.86
X5.4Y-3.05
X5.45Y-4.85
X5.45Y-4.9
X5.47Y-3.975
X5.51Y-5.7
X5.53Y-5.66
X5.55Y-5.7
X5.5906Y-2.4803
X5.605Y-4.865
X5.61Y-4.625
X5.79Y-3.4303
X5.8Y-4.965
X5.8061Y-5.7
X5.83Y-4.79
X5.89Y-2.5
X5.9Y-5.7
X5.9055Y-3.5433
X5.91Y-4.02
X5.96Y-3.97
X5.97Y-3.65
X5.985Y-3.7243
X6.0Y-3.93
X6.02Y-3.685
X6.05Y-3.89
X6.05Y-5.65
X6.3386Y-5.2756
X6.4173Y-4.8819
X6.4173Y-5.0787
X6.55Y-2.865
X6.5748Y-4.8819
X6.69Y-4.6
X6.82Y-4.6
T4
X5.0Y-4.49
X5.05Y-4.49
X5.1Y-4.49
X5.15Y-4.49
X5.2Y-4.49
X5.25Y-4.49
T3
G00X5.5386Y-5.8051
M15
G01X5.5386Y-5.8484
M16
G05
G00X5.5386Y-5.9795
M15
G01X5.5386Y-6.0031
M16
G05
G00X5.8787Y-5.8051
M15
G01X5.8787Y-5.8484
M16
G05
G00X5.8787Y-5.9795
M15
G01X5.8787Y-6.0031
M16
G05
T0
M30
