%TF.GenerationSoftware,KiCad,Pcbnew,(5.1.9)-1*%
%TF.CreationDate,2021-12-11T18:44:49+01:00*%
%TF.ProjectId,Berlin_Uhr,4265726c-696e-45f5-9568-722e6b696361,rev?*%
%TF.SameCoordinates,Original*%
%TF.FileFunction,Soldermask,Top*%
%TF.FilePolarity,Negative*%
%FSLAX46Y46*%
G04 Gerber Fmt 4.6, Leading zero omitted, Abs format (unit mm)*
G04 Created by KiCad (PCBNEW (5.1.9)-1) date 2021-12-11 18:44:49*
%MOMM*%
%LPD*%
G01*
G04 APERTURE LIST*
%ADD10C,0.100000*%
%ADD11C,3.200000*%
%ADD12R,2.400000X1.700000*%
%ADD13R,4.110000X4.360000*%
%ADD14R,1.200000X0.400000*%
%ADD15R,1.700000X0.900000*%
%ADD16O,1.000000X1.000000*%
%ADD17R,1.000000X1.000000*%
%ADD18R,0.600000X1.450000*%
%ADD19R,0.300000X1.450000*%
%ADD20O,1.000000X2.100000*%
%ADD21C,0.650000*%
%ADD22O,1.000000X1.600000*%
%ADD23R,1.200000X0.900000*%
%ADD24C,10.200000*%
%ADD25R,3.500000X3.300000*%
G04 APERTURE END LIST*
D10*
%TO.C,BerlinUhr*%
G36*
X126268902Y-129191984D02*
G01*
X126300900Y-129074675D01*
X126310021Y-128961427D01*
X126296264Y-128852242D01*
X126259629Y-128747118D01*
X126202648Y-128651482D01*
X126127849Y-128570761D01*
X126035234Y-128504953D01*
X125924802Y-128454060D01*
X125892974Y-128442475D01*
X125790734Y-128396613D01*
X125700418Y-128337792D01*
X125622028Y-128266012D01*
X125555562Y-128181273D01*
X125501021Y-128083575D01*
X125463060Y-127982901D01*
X125442286Y-127880555D01*
X125438699Y-127776535D01*
X125452301Y-127670842D01*
X125483089Y-127563476D01*
X126346030Y-125192568D01*
X126386383Y-125071041D01*
X126418638Y-124950446D01*
X126442795Y-124830782D01*
X126458854Y-124712052D01*
X126466816Y-124594252D01*
X126466680Y-124477385D01*
X126458445Y-124361450D01*
X126442113Y-124246446D01*
X126417683Y-124132375D01*
X126385156Y-124019235D01*
X126344530Y-123907027D01*
X126295807Y-123795752D01*
X126240613Y-123686439D01*
X126179610Y-123582769D01*
X126112799Y-123484745D01*
X126040179Y-123392365D01*
X125961751Y-123305630D01*
X125877513Y-123224538D01*
X125787468Y-123149092D01*
X125691614Y-123079290D01*
X125589951Y-123015133D01*
X125482480Y-122956619D01*
X125369199Y-122903751D01*
X125250111Y-122856527D01*
X125128529Y-122816154D01*
X125007768Y-122783838D01*
X124887828Y-122759581D01*
X124768710Y-122743381D01*
X124650414Y-122735238D01*
X124532938Y-122735153D01*
X124416284Y-122743126D01*
X124300452Y-122759157D01*
X124185441Y-122783244D01*
X124071252Y-122815390D01*
X123957884Y-122855593D01*
X123845338Y-122903854D01*
X123736487Y-122957778D01*
X123633240Y-123017620D01*
X123535598Y-123083381D01*
X123443560Y-123155062D01*
X123357126Y-123232662D01*
X123276296Y-123316180D01*
X123201071Y-123405619D01*
X123131450Y-123500976D01*
X123067433Y-123602251D01*
X123009021Y-123709447D01*
X122956213Y-123822561D01*
X122909009Y-123941595D01*
X122251669Y-125747622D01*
X122219174Y-125864751D01*
X122208561Y-125977456D01*
X122219832Y-126085737D01*
X122252985Y-126189593D01*
X122311233Y-126281748D01*
X122386937Y-126359983D01*
X122480095Y-126424299D01*
X122590709Y-126474695D01*
X122707837Y-126507190D01*
X122820542Y-126517803D01*
X122928823Y-126506532D01*
X123032680Y-126473379D01*
X123128315Y-126416398D01*
X123209036Y-126341599D01*
X123274844Y-126248983D01*
X123325737Y-126138551D01*
X123983078Y-124332524D01*
X124028505Y-124230486D01*
X124086024Y-124140778D01*
X124155634Y-124063399D01*
X124237334Y-123998351D01*
X124331127Y-123945631D01*
X124434665Y-123908713D01*
X124539239Y-123888749D01*
X124644849Y-123885743D01*
X124751497Y-123899692D01*
X124859182Y-123930596D01*
X124958239Y-123975299D01*
X125045372Y-124032962D01*
X125120580Y-124103584D01*
X125183864Y-124187165D01*
X125235222Y-124283705D01*
X125276163Y-124385103D01*
X125299512Y-124487305D01*
X125305268Y-124590313D01*
X125293432Y-124694126D01*
X125264005Y-124798743D01*
X124409052Y-127172559D01*
X124368182Y-127295337D01*
X124335338Y-127417030D01*
X124310523Y-127537643D01*
X124293735Y-127657173D01*
X124284975Y-127775621D01*
X124284242Y-127892985D01*
X124291536Y-128009266D01*
X124306858Y-128124465D01*
X124330209Y-128238582D01*
X124361586Y-128351615D01*
X124400991Y-128463567D01*
X124448423Y-128574435D01*
X124503672Y-128683768D01*
X124564841Y-128787497D01*
X124631929Y-128885622D01*
X124704934Y-128978143D01*
X124783860Y-129065059D01*
X124868705Y-129146372D01*
X124959470Y-129222080D01*
X125056153Y-129292183D01*
X125158755Y-129356683D01*
X125267276Y-129415578D01*
X125381716Y-129468869D01*
X125502076Y-129516555D01*
X125533904Y-129528139D01*
X125651213Y-129560137D01*
X125764461Y-129569259D01*
X125873647Y-129555502D01*
X125978770Y-129518868D01*
X126073139Y-129465367D01*
X126152956Y-129393055D01*
X126218221Y-129301932D01*
X126268933Y-129191995D01*
X126268902Y-129191984D01*
G37*
G36*
X123258563Y-120951347D02*
G01*
X123288831Y-120843432D01*
X123300870Y-120736088D01*
X123294680Y-120629319D01*
X123270261Y-120523123D01*
X123227616Y-120417501D01*
X123174117Y-120316939D01*
X123108462Y-120229973D01*
X123030651Y-120156601D01*
X122940683Y-120096825D01*
X122838559Y-120050644D01*
X122730324Y-120020261D01*
X122622028Y-120007874D01*
X122513667Y-120013485D01*
X122405244Y-120037092D01*
X122296757Y-120078696D01*
X122199059Y-120133237D01*
X122114320Y-120199703D01*
X122042540Y-120278094D01*
X121983718Y-120368409D01*
X121937856Y-120470649D01*
X121907154Y-120578768D01*
X121893812Y-120686718D01*
X121897831Y-120794498D01*
X121919210Y-120902111D01*
X121957951Y-121009556D01*
X122015357Y-121108297D01*
X122084050Y-121193847D01*
X122164032Y-121266206D01*
X122255302Y-121325374D01*
X122357860Y-121371352D01*
X122465660Y-121401939D01*
X122572656Y-121414933D01*
X122678845Y-121410335D01*
X122784230Y-121388144D01*
X122888811Y-121348361D01*
X122990416Y-121291998D01*
X123078194Y-121224115D01*
X123152144Y-121144713D01*
X123212267Y-121053790D01*
X123258563Y-120951347D01*
G37*
G36*
X121479945Y-125466738D02*
G01*
X122565860Y-122483213D01*
X122602879Y-122355201D01*
X122616929Y-122237694D01*
X122608008Y-122130691D01*
X122576119Y-122034192D01*
X122521260Y-121948198D01*
X122443431Y-121872709D01*
X122342632Y-121807723D01*
X122218863Y-121753243D01*
X122101554Y-121721245D01*
X121988306Y-121712125D01*
X121879121Y-121725881D01*
X121773997Y-121762516D01*
X121683108Y-121817283D01*
X121605778Y-121890500D01*
X121542005Y-121982167D01*
X121491790Y-122092283D01*
X120405876Y-125075808D01*
X120373381Y-125192937D01*
X120362768Y-125305642D01*
X120374039Y-125413923D01*
X120407193Y-125517780D01*
X120465441Y-125609934D01*
X120541144Y-125688170D01*
X120634302Y-125752485D01*
X120744916Y-125802882D01*
X120862044Y-125835377D01*
X120974750Y-125845989D01*
X121083030Y-125834719D01*
X121186887Y-125801565D01*
X121282522Y-125744584D01*
X121363244Y-125669786D01*
X121429052Y-125577170D01*
X121479945Y-125466738D01*
G37*
G36*
X119642101Y-124797817D02*
G01*
X121315857Y-120199210D01*
X121352876Y-120071199D01*
X121366926Y-119953691D01*
X121358006Y-119846689D01*
X121326117Y-119750190D01*
X121271257Y-119664196D01*
X121193428Y-119588706D01*
X121092630Y-119523721D01*
X120968862Y-119469241D01*
X120851552Y-119437243D01*
X120738304Y-119428122D01*
X120629118Y-119441879D01*
X120523994Y-119478514D01*
X120433107Y-119533281D01*
X120355776Y-119606499D01*
X120292004Y-119698165D01*
X120241788Y-119808281D01*
X118568032Y-124406888D01*
X118535537Y-124524017D01*
X118524925Y-124636722D01*
X118536195Y-124745003D01*
X118569349Y-124848859D01*
X118627597Y-124941014D01*
X118703300Y-125019249D01*
X118796459Y-125083565D01*
X118907072Y-125133961D01*
X119024201Y-125166456D01*
X119136906Y-125177069D01*
X119245186Y-125165798D01*
X119349044Y-125132645D01*
X119444679Y-125075664D01*
X119525400Y-125000865D01*
X119591208Y-124908249D01*
X119642101Y-124797817D01*
G37*
G36*
X118945859Y-121165640D02*
G01*
X118976590Y-121051811D01*
X118984806Y-120941049D01*
X118970506Y-120833356D01*
X118933691Y-120728729D01*
X118877207Y-120633274D01*
X118803899Y-120553096D01*
X118713771Y-120488193D01*
X118606819Y-120438567D01*
X118485237Y-120398194D01*
X118364476Y-120365878D01*
X118244537Y-120341620D01*
X118125419Y-120325420D01*
X118007122Y-120317278D01*
X117889647Y-120317193D01*
X117772994Y-120325166D01*
X117657161Y-120341197D01*
X117542150Y-120365284D01*
X117427961Y-120397430D01*
X117314594Y-120437633D01*
X117202047Y-120485894D01*
X117093196Y-120539817D01*
X116989950Y-120599660D01*
X116892307Y-120665421D01*
X116800269Y-120737102D01*
X116713835Y-120814702D01*
X116633005Y-120898220D01*
X116557780Y-120987658D01*
X116488159Y-121083015D01*
X116424142Y-121184291D01*
X116365729Y-121291486D01*
X116312921Y-121404600D01*
X116265718Y-121523634D01*
X115608377Y-123329662D01*
X115575882Y-123446790D01*
X115565270Y-123559496D01*
X115576540Y-123667777D01*
X115609694Y-123771633D01*
X115667942Y-123863788D01*
X115743646Y-123942023D01*
X115836804Y-124006339D01*
X115947417Y-124056735D01*
X116064546Y-124089230D01*
X116177250Y-124099842D01*
X116285531Y-124088572D01*
X116389389Y-124055419D01*
X116485024Y-123998437D01*
X116565745Y-123923639D01*
X116631553Y-123831023D01*
X116682446Y-123720591D01*
X117339786Y-121914563D01*
X117384665Y-121813047D01*
X117440534Y-121724900D01*
X117507394Y-121650125D01*
X117585245Y-121588721D01*
X117674087Y-121540687D01*
X117774066Y-121504635D01*
X117876644Y-121483225D01*
X117981822Y-121476457D01*
X118089600Y-121484330D01*
X118199977Y-121506844D01*
X118335519Y-121534778D01*
X118458974Y-121542546D01*
X118570340Y-121530146D01*
X118669620Y-121497579D01*
X118756811Y-121444845D01*
X118831915Y-121371943D01*
X118894931Y-121278876D01*
X118945859Y-121165640D01*
G37*
G36*
X115773419Y-120524539D02*
G01*
X115798948Y-120423457D01*
X115803139Y-120319115D01*
X115785991Y-120211511D01*
X115747504Y-120100644D01*
X115690899Y-119983230D01*
X115629310Y-119871172D01*
X115562737Y-119764473D01*
X115491180Y-119663130D01*
X115414640Y-119567144D01*
X115333116Y-119476517D01*
X115246608Y-119391246D01*
X115155116Y-119311332D01*
X115058639Y-119236776D01*
X114957180Y-119167577D01*
X114850736Y-119103735D01*
X114739308Y-119045250D01*
X114622897Y-118992123D01*
X114501501Y-118944353D01*
X114377997Y-118902757D01*
X114255258Y-118868151D01*
X114133284Y-118840536D01*
X114012077Y-118819909D01*
X113891635Y-118806274D01*
X113771958Y-118799629D01*
X113653047Y-118799975D01*
X113534901Y-118807310D01*
X113417521Y-118821635D01*
X113300907Y-118842951D01*
X113185059Y-118871257D01*
X113069975Y-118906553D01*
X112955657Y-118948839D01*
X112842106Y-118998116D01*
X112731368Y-119053427D01*
X112625493Y-119113819D01*
X112524480Y-119179290D01*
X112428330Y-119249840D01*
X112337044Y-119325470D01*
X112250620Y-119406180D01*
X112169058Y-119491970D01*
X112092358Y-119582839D01*
X112020522Y-119678788D01*
X111953549Y-119779817D01*
X111891439Y-119885925D01*
X111834191Y-119997114D01*
X111781805Y-120113381D01*
X111734282Y-120234729D01*
X111692671Y-120358274D01*
X111658022Y-120481134D01*
X111630332Y-120603311D01*
X111609602Y-120724803D01*
X111595834Y-120845610D01*
X111589026Y-120965733D01*
X111589180Y-121085172D01*
X111596293Y-121203927D01*
X111610368Y-121321997D01*
X111631402Y-121439382D01*
X111659398Y-121556083D01*
X111694354Y-121672100D01*
X111736271Y-121787433D01*
X111785149Y-121902080D01*
X111840460Y-122012818D01*
X111900852Y-122118693D01*
X111966323Y-122219706D01*
X112036874Y-122315855D01*
X112112503Y-122407143D01*
X112193213Y-122493567D01*
X112279003Y-122575129D01*
X112369873Y-122651827D01*
X112465822Y-122723663D01*
X112566850Y-122790637D01*
X112672958Y-122852748D01*
X112784147Y-122909996D01*
X112900415Y-122962381D01*
X113021762Y-123009903D01*
X113729852Y-123267627D01*
X113846664Y-123299444D01*
X113958421Y-123308022D01*
X114065120Y-123293360D01*
X114166763Y-123255460D01*
X114262399Y-123198477D01*
X114343120Y-123123679D01*
X114408927Y-123031064D01*
X114459820Y-122920631D01*
X114491638Y-122803819D01*
X114500216Y-122692063D01*
X114485555Y-122585364D01*
X114447653Y-122483721D01*
X114394153Y-122389352D01*
X114321840Y-122309536D01*
X114230716Y-122244271D01*
X114120781Y-122193558D01*
X113412691Y-121935835D01*
X113303537Y-121889670D01*
X113203390Y-121833912D01*
X113112252Y-121768562D01*
X113030121Y-121693619D01*
X112956999Y-121609082D01*
X112892884Y-121514953D01*
X112837778Y-121411231D01*
X112794512Y-121300236D01*
X112764267Y-121188830D01*
X112747043Y-121077014D01*
X112742839Y-120964790D01*
X112751656Y-120852155D01*
X112773493Y-120739111D01*
X112808351Y-120625658D01*
X112854516Y-120516503D01*
X112910274Y-120416357D01*
X112975624Y-120325219D01*
X113050568Y-120243088D01*
X113135104Y-120169966D01*
X113229233Y-120105851D01*
X113332954Y-120050744D01*
X113441839Y-120006711D01*
X113551459Y-119975815D01*
X113661813Y-119958059D01*
X113772902Y-119953442D01*
X113884724Y-119961963D01*
X113997281Y-119983623D01*
X114110572Y-120018422D01*
X114212555Y-120060044D01*
X114311638Y-120109624D01*
X113533202Y-120466009D01*
X113424228Y-120527146D01*
X113336048Y-120599230D01*
X113268661Y-120682261D01*
X113222067Y-120776238D01*
X113192738Y-120887762D01*
X113185835Y-120999564D01*
X113201355Y-121111644D01*
X113239296Y-121224001D01*
X113299710Y-121328769D01*
X113374687Y-121415188D01*
X113464228Y-121483254D01*
X113568331Y-121532971D01*
X113670091Y-121558182D01*
X113776469Y-121561424D01*
X113887464Y-121542694D01*
X114003078Y-121501995D01*
X115383426Y-120878145D01*
X115493244Y-120834863D01*
X115587153Y-120777861D01*
X115665151Y-120707140D01*
X115727240Y-120622699D01*
X115773419Y-120524539D01*
G37*
G36*
X109006671Y-119683452D02*
G01*
X108948174Y-119635130D01*
X108870066Y-119585678D01*
X108772347Y-119535094D01*
X108662492Y-119482095D01*
X108579802Y-119436982D01*
X108524275Y-119399754D01*
X108588863Y-119508356D01*
X108678535Y-119592050D01*
X108793290Y-119650837D01*
X108898351Y-119677814D01*
X109006671Y-119683452D01*
G37*
G36*
X110989312Y-119954571D02*
G01*
X111030867Y-119831052D01*
X111065352Y-119708269D01*
X111092764Y-119586222D01*
X111113105Y-119464910D01*
X111126376Y-119344335D01*
X111132574Y-119224496D01*
X111131701Y-119105392D01*
X111123757Y-118987026D01*
X111108741Y-118869394D01*
X111086655Y-118752500D01*
X111057496Y-118636341D01*
X111021266Y-118520917D01*
X110977965Y-118406231D01*
X110927593Y-118292280D01*
X110872680Y-118180446D01*
X110812658Y-118073556D01*
X110747527Y-117971610D01*
X110677286Y-117874608D01*
X110601937Y-117782549D01*
X110521479Y-117695435D01*
X110435910Y-117613265D01*
X110345233Y-117536038D01*
X110249446Y-117463756D01*
X110148551Y-117396417D01*
X110042546Y-117334022D01*
X109931432Y-117276571D01*
X109815208Y-117224063D01*
X109693875Y-117176501D01*
X109576566Y-117144503D01*
X109463318Y-117135382D01*
X109354132Y-117149138D01*
X109249008Y-117185772D01*
X109156854Y-117244021D01*
X109078618Y-117319724D01*
X109014303Y-117412883D01*
X108963906Y-117523496D01*
X108931411Y-117640625D01*
X108920799Y-117753330D01*
X108932069Y-117861611D01*
X108965223Y-117965467D01*
X109023471Y-118057622D01*
X109099175Y-118135858D01*
X109192333Y-118200173D01*
X109302946Y-118250569D01*
X109412042Y-118296896D01*
X109512011Y-118353142D01*
X109602853Y-118419304D01*
X109684571Y-118495384D01*
X109757162Y-118581381D01*
X109820626Y-118677296D01*
X109874964Y-118783128D01*
X109921108Y-118892782D01*
X109953790Y-119003052D01*
X109973006Y-119113938D01*
X109978761Y-119225439D01*
X109971051Y-119337558D01*
X109949879Y-119450292D01*
X109915242Y-119563642D01*
X109868915Y-119672737D01*
X109812670Y-119772706D01*
X109746508Y-119863549D01*
X109670428Y-119945265D01*
X109584431Y-120017856D01*
X109488515Y-120081322D01*
X109382683Y-120135660D01*
X109273798Y-120179694D01*
X109164178Y-120210589D01*
X109053824Y-120228345D01*
X108942736Y-120232962D01*
X108830913Y-120224441D01*
X108718357Y-120202781D01*
X108605065Y-120167982D01*
X108495912Y-120121817D01*
X108395765Y-120066060D01*
X108304626Y-120000709D01*
X108222496Y-119925765D01*
X108149373Y-119841230D01*
X108085259Y-119747101D01*
X108030151Y-119643379D01*
X107986118Y-119534494D01*
X107955223Y-119424873D01*
X107937467Y-119314519D01*
X107932850Y-119203432D01*
X107941372Y-119091609D01*
X107963032Y-118979053D01*
X107997830Y-118865761D01*
X109132972Y-115746983D01*
X109164790Y-115630170D01*
X109173368Y-115518414D01*
X109158706Y-115411714D01*
X109120804Y-115310071D01*
X109063822Y-115214436D01*
X108989024Y-115133714D01*
X108896409Y-115067907D01*
X108785976Y-115017014D01*
X108672147Y-114986283D01*
X108561386Y-114978067D01*
X108453692Y-114992367D01*
X108349066Y-115029182D01*
X108253611Y-115085666D01*
X108173432Y-115158973D01*
X108108530Y-115249101D01*
X108058903Y-115356054D01*
X106923761Y-118474832D01*
X106882548Y-118597281D01*
X106848268Y-118719127D01*
X106820918Y-118840370D01*
X106800499Y-118961009D01*
X106787011Y-119081046D01*
X106780454Y-119200478D01*
X106780830Y-119319309D01*
X106788135Y-119437535D01*
X106802373Y-119555158D01*
X106823540Y-119672179D01*
X106851639Y-119788595D01*
X106886669Y-119904410D01*
X106928630Y-120019620D01*
X106977523Y-120134227D01*
X107033889Y-120245349D01*
X107095174Y-120351549D01*
X107161376Y-120452828D01*
X107232495Y-120549185D01*
X107308531Y-120640619D01*
X107389484Y-120727132D01*
X107475355Y-120808723D01*
X107566143Y-120885393D01*
X107661849Y-120957140D01*
X107762472Y-121023966D01*
X107868012Y-121085870D01*
X107978470Y-121142852D01*
X108093844Y-121194913D01*
X108214136Y-121242051D01*
X108336585Y-121283263D01*
X108458432Y-121317544D01*
X108579674Y-121344893D01*
X108700314Y-121365313D01*
X108820350Y-121378800D01*
X108939783Y-121385357D01*
X109058613Y-121384982D01*
X109176840Y-121377676D01*
X109294463Y-121363439D01*
X109411483Y-121342272D01*
X109527900Y-121314172D01*
X109643714Y-121279142D01*
X109758925Y-121237181D01*
X109873532Y-121188288D01*
X109985749Y-121132321D01*
X110092964Y-121071406D01*
X110195177Y-121005543D01*
X110292386Y-120934736D01*
X110384592Y-120858979D01*
X110471794Y-120778277D01*
X110553994Y-120692628D01*
X110631192Y-120602032D01*
X110703386Y-120506490D01*
X110770577Y-120405999D01*
X110832765Y-120300563D01*
X110889951Y-120190180D01*
X110942132Y-120074848D01*
X110989312Y-119954571D01*
G37*
G36*
X126847037Y-133151724D02*
G01*
X126877769Y-133037894D01*
X126885985Y-132927133D01*
X126871685Y-132819439D01*
X126834870Y-132714813D01*
X126778385Y-132619358D01*
X126705078Y-132539181D01*
X126614950Y-132474278D01*
X126507998Y-132424652D01*
X126386416Y-132384279D01*
X126265655Y-132351964D01*
X126145715Y-132327706D01*
X126026598Y-132311505D01*
X125908301Y-132303363D01*
X125790825Y-132303278D01*
X125674173Y-132311251D01*
X125558340Y-132327281D01*
X125443330Y-132351369D01*
X125329141Y-132383514D01*
X125215774Y-132423717D01*
X125103229Y-132471978D01*
X124994377Y-132525901D01*
X124891131Y-132585743D01*
X124793488Y-132651505D01*
X124701450Y-132723184D01*
X124615016Y-132800784D01*
X124534187Y-132884303D01*
X124458962Y-132973741D01*
X124389340Y-133069098D01*
X124325324Y-133170374D01*
X124266911Y-133277570D01*
X124214103Y-133390684D01*
X124166898Y-133509718D01*
X123509559Y-135315743D01*
X123477064Y-135432871D01*
X123466452Y-135545574D01*
X123477723Y-135653855D01*
X123510876Y-135757712D01*
X123569126Y-135849868D01*
X123644829Y-135928103D01*
X123737987Y-135992419D01*
X123848601Y-136042815D01*
X123965729Y-136075310D01*
X124078433Y-136085922D01*
X124186713Y-136074651D01*
X124290572Y-136041498D01*
X124386206Y-135984516D01*
X124466928Y-135909718D01*
X124532734Y-135817103D01*
X124583627Y-135706672D01*
X125240967Y-133900647D01*
X125285845Y-133799129D01*
X125341715Y-133710982D01*
X125408574Y-133636207D01*
X125486425Y-133574802D01*
X125575267Y-133526769D01*
X125675246Y-133490717D01*
X125777824Y-133469307D01*
X125883003Y-133462539D01*
X125990780Y-133470413D01*
X126101157Y-133492927D01*
X126236699Y-133520861D01*
X126360153Y-133528628D01*
X126471520Y-133516228D01*
X126570799Y-133483662D01*
X126657990Y-133430928D01*
X126733094Y-133358026D01*
X126796109Y-133264959D01*
X126847037Y-133151724D01*
G37*
G36*
X123325998Y-137231137D02*
G01*
X123357997Y-137113826D01*
X123367117Y-137000579D01*
X123353360Y-136891394D01*
X123316726Y-136786271D01*
X123263226Y-136691903D01*
X123190914Y-136612087D01*
X123099791Y-136546822D01*
X122989855Y-136496109D01*
X122958031Y-136484527D01*
X122855792Y-136438665D01*
X122765476Y-136379844D01*
X122687086Y-136308064D01*
X122620620Y-136223325D01*
X122566079Y-136125627D01*
X122528118Y-136024954D01*
X122507344Y-135922607D01*
X122503758Y-135818587D01*
X122517359Y-135712894D01*
X122548147Y-135605528D01*
X123411086Y-133234624D01*
X123451439Y-133113097D01*
X123483694Y-132992502D01*
X123507851Y-132872839D01*
X123523910Y-132754107D01*
X123531872Y-132636308D01*
X123531736Y-132519440D01*
X123523501Y-132403505D01*
X123507170Y-132288502D01*
X123482740Y-132174431D01*
X123450212Y-132061292D01*
X123409588Y-131949085D01*
X123360865Y-131837810D01*
X123305670Y-131728497D01*
X123244667Y-131624827D01*
X123177856Y-131526804D01*
X123105236Y-131434424D01*
X123026808Y-131347688D01*
X122942570Y-131266598D01*
X122852525Y-131191152D01*
X122756671Y-131121349D01*
X122655008Y-131057192D01*
X122547536Y-130998679D01*
X122434257Y-130945811D01*
X122315168Y-130898586D01*
X122201030Y-130860798D01*
X122086688Y-130830444D01*
X121972143Y-130807524D01*
X121857395Y-130792038D01*
X121742444Y-130783987D01*
X121627291Y-130783370D01*
X122070344Y-129566092D01*
X122102161Y-129449280D01*
X122110739Y-129337524D01*
X122096077Y-129230824D01*
X122058176Y-129129182D01*
X122001195Y-129033547D01*
X121926396Y-128952826D01*
X121833780Y-128887018D01*
X121723348Y-128836124D01*
X121606038Y-128804127D01*
X121492791Y-128795006D01*
X121383605Y-128808763D01*
X121278482Y-128845396D01*
X121187594Y-128900164D01*
X121110264Y-128973381D01*
X121046491Y-129065047D01*
X120996276Y-129175163D01*
X119316730Y-133789678D01*
X119284235Y-133906806D01*
X119273624Y-134019509D01*
X119284894Y-134127790D01*
X119318047Y-134231648D01*
X119376295Y-134323802D01*
X119451999Y-134402037D01*
X119545156Y-134466353D01*
X119655770Y-134516749D01*
X119772898Y-134549244D01*
X119885604Y-134559857D01*
X119993885Y-134548586D01*
X120097741Y-134515433D01*
X120193377Y-134458451D01*
X120274098Y-134383652D01*
X120339905Y-134291038D01*
X120390798Y-134180607D01*
X121048137Y-132374581D01*
X121093566Y-132272543D01*
X121151084Y-132182835D01*
X121220694Y-132105457D01*
X121302394Y-132040407D01*
X121396185Y-131987688D01*
X121499723Y-131950770D01*
X121604298Y-131930807D01*
X121709908Y-131927799D01*
X121816556Y-131941748D01*
X121924239Y-131972653D01*
X122023298Y-132017357D01*
X122110430Y-132075019D01*
X122185638Y-132145641D01*
X122248921Y-132229222D01*
X122300280Y-132325761D01*
X122341220Y-132427159D01*
X122364569Y-132529362D01*
X122370325Y-132632370D01*
X122358490Y-132736183D01*
X122329062Y-132840800D01*
X121474081Y-135214600D01*
X121433708Y-135336182D01*
X121401392Y-135456943D01*
X121377135Y-135576882D01*
X121360935Y-135696000D01*
X121352793Y-135814296D01*
X121352707Y-135931771D01*
X121360681Y-136048424D01*
X121376710Y-136164257D01*
X121400798Y-136279267D01*
X121432944Y-136393457D01*
X121473147Y-136506824D01*
X121521408Y-136619371D01*
X121576601Y-136728683D01*
X121637603Y-136832352D01*
X121704414Y-136930375D01*
X121777034Y-137022755D01*
X121855463Y-137109491D01*
X121939699Y-137190581D01*
X122029745Y-137266028D01*
X122125599Y-137335830D01*
X122227262Y-137399987D01*
X122334734Y-137458500D01*
X122448014Y-137511369D01*
X122567103Y-137558593D01*
X122598926Y-137570176D01*
X122715740Y-137601994D01*
X122827496Y-137610571D01*
X122934194Y-137595910D01*
X123035837Y-137558009D01*
X123130205Y-137504508D01*
X123210022Y-137432196D01*
X123275286Y-137341072D01*
X123325998Y-137231137D01*
G37*
G36*
X118968512Y-132320440D02*
G01*
X119622955Y-130522373D01*
X119654772Y-130405560D01*
X119663350Y-130293804D01*
X119648688Y-130187105D01*
X119610787Y-130085462D01*
X119557287Y-129991094D01*
X119484974Y-129911278D01*
X119393851Y-129846013D01*
X119283916Y-129795301D01*
X119166606Y-129763303D01*
X119053359Y-129754183D01*
X118944173Y-129767939D01*
X118839050Y-129804573D01*
X118744681Y-129858073D01*
X118664865Y-129930385D01*
X118599601Y-130021509D01*
X118548888Y-130131444D01*
X117894445Y-131929511D01*
X117848901Y-132031868D01*
X117791034Y-132122531D01*
X117720846Y-132201501D01*
X117638334Y-132268776D01*
X117543502Y-132324360D01*
X117442828Y-132362321D01*
X117340481Y-132383095D01*
X117236462Y-132386681D01*
X117130769Y-132373080D01*
X117023403Y-132342291D01*
X116921047Y-132296748D01*
X116830385Y-132238881D01*
X116751414Y-132168692D01*
X116684138Y-132086180D01*
X116628555Y-131991346D01*
X116591636Y-131887809D01*
X116571673Y-131783236D01*
X116568666Y-131677626D01*
X116582615Y-131570978D01*
X116613520Y-131463293D01*
X117262172Y-129681137D01*
X117294169Y-129563826D01*
X117303290Y-129450578D01*
X117289533Y-129341394D01*
X117252899Y-129236270D01*
X117195918Y-129140635D01*
X117121119Y-129059914D01*
X117028504Y-128994106D01*
X116918072Y-128943213D01*
X116800762Y-128911215D01*
X116687514Y-128902095D01*
X116578329Y-128915851D01*
X116473206Y-128952485D01*
X116381051Y-129010733D01*
X116302816Y-129086436D01*
X116238501Y-129179594D01*
X116188104Y-129290208D01*
X115539453Y-131072364D01*
X115498561Y-131195197D01*
X115465658Y-131317059D01*
X115440742Y-131437947D01*
X115423813Y-131557863D01*
X115414872Y-131676807D01*
X115413917Y-131794779D01*
X115420951Y-131911779D01*
X115435971Y-132027807D01*
X115458980Y-132142862D01*
X115489975Y-132256945D01*
X115528958Y-132370056D01*
X115575928Y-132482195D01*
X115631639Y-132590258D01*
X115693230Y-132692827D01*
X115760700Y-132789902D01*
X115834047Y-132881484D01*
X115913275Y-132967572D01*
X115998381Y-133048165D01*
X116089366Y-133123266D01*
X116186229Y-133192872D01*
X116288973Y-133256985D01*
X116397594Y-133315603D01*
X116512094Y-133368729D01*
X116632474Y-133416360D01*
X116754000Y-133456713D01*
X116874595Y-133488968D01*
X116994259Y-133513125D01*
X117112990Y-133529184D01*
X117230789Y-133537146D01*
X117347656Y-133537009D01*
X117463591Y-133528775D01*
X117578595Y-133512443D01*
X117692666Y-133488013D01*
X117805806Y-133455485D01*
X117918013Y-133414859D01*
X118029289Y-133366136D01*
X118138602Y-133310942D01*
X118242271Y-133249940D01*
X118340295Y-133183129D01*
X118432674Y-133110509D01*
X118519409Y-133032081D01*
X118600500Y-132947844D01*
X118675947Y-132857798D01*
X118745749Y-132761944D01*
X118809906Y-132660281D01*
X118868420Y-132552810D01*
X118921288Y-132439529D01*
X118968512Y-132320440D01*
G37*
%TD*%
D11*
%TO.C,REF\u002A\u002A*%
X173500000Y-150000000D03*
%TD*%
%TO.C,REF\u002A\u002A*%
X116500000Y-150000000D03*
%TD*%
%TO.C,REF\u002A\u002A*%
X145000000Y-30000000D03*
%TD*%
D12*
%TO.C,Y1*%
X156210000Y-121920000D03*
X156210000Y-125620000D03*
%TD*%
D13*
%TO.C,U3*%
X144780000Y-95250000D03*
D14*
X148430000Y-90375000D03*
X148430000Y-91025000D03*
X148430000Y-91675000D03*
X148430000Y-92325000D03*
X148430000Y-92975000D03*
X148430000Y-93625000D03*
X148430000Y-94275000D03*
X148430000Y-94925000D03*
X148430000Y-95575000D03*
X148430000Y-96225000D03*
X148430000Y-96875000D03*
X148430000Y-97525000D03*
X148430000Y-98175000D03*
X148430000Y-98825000D03*
X148430000Y-99475000D03*
X148430000Y-100125000D03*
X141130000Y-100125000D03*
X141130000Y-99475000D03*
X141130000Y-98825000D03*
X141130000Y-98175000D03*
X141130000Y-97525000D03*
X141130000Y-96875000D03*
X141130000Y-96225000D03*
X141130000Y-95575000D03*
X141130000Y-94925000D03*
X141130000Y-94275000D03*
X141130000Y-93625000D03*
X141130000Y-92975000D03*
X141130000Y-92325000D03*
X141130000Y-91675000D03*
X141130000Y-91025000D03*
X141130000Y-90375000D03*
%TD*%
%TO.C,U2*%
G36*
G01*
X148835000Y-115070000D02*
X148835000Y-114770000D01*
G75*
G02*
X148985000Y-114620000I150000J0D01*
G01*
X150735000Y-114620000D01*
G75*
G02*
X150885000Y-114770000I0J-150000D01*
G01*
X150885000Y-115070000D01*
G75*
G02*
X150735000Y-115220000I-150000J0D01*
G01*
X148985000Y-115220000D01*
G75*
G02*
X148835000Y-115070000I0J150000D01*
G01*
G37*
G36*
G01*
X148835000Y-116340000D02*
X148835000Y-116040000D01*
G75*
G02*
X148985000Y-115890000I150000J0D01*
G01*
X150735000Y-115890000D01*
G75*
G02*
X150885000Y-116040000I0J-150000D01*
G01*
X150885000Y-116340000D01*
G75*
G02*
X150735000Y-116490000I-150000J0D01*
G01*
X148985000Y-116490000D01*
G75*
G02*
X148835000Y-116340000I0J150000D01*
G01*
G37*
G36*
G01*
X148835000Y-117610000D02*
X148835000Y-117310000D01*
G75*
G02*
X148985000Y-117160000I150000J0D01*
G01*
X150735000Y-117160000D01*
G75*
G02*
X150885000Y-117310000I0J-150000D01*
G01*
X150885000Y-117610000D01*
G75*
G02*
X150735000Y-117760000I-150000J0D01*
G01*
X148985000Y-117760000D01*
G75*
G02*
X148835000Y-117610000I0J150000D01*
G01*
G37*
G36*
G01*
X148835000Y-118880000D02*
X148835000Y-118580000D01*
G75*
G02*
X148985000Y-118430000I150000J0D01*
G01*
X150735000Y-118430000D01*
G75*
G02*
X150885000Y-118580000I0J-150000D01*
G01*
X150885000Y-118880000D01*
G75*
G02*
X150735000Y-119030000I-150000J0D01*
G01*
X148985000Y-119030000D01*
G75*
G02*
X148835000Y-118880000I0J150000D01*
G01*
G37*
G36*
G01*
X148835000Y-120150000D02*
X148835000Y-119850000D01*
G75*
G02*
X148985000Y-119700000I150000J0D01*
G01*
X150735000Y-119700000D01*
G75*
G02*
X150885000Y-119850000I0J-150000D01*
G01*
X150885000Y-120150000D01*
G75*
G02*
X150735000Y-120300000I-150000J0D01*
G01*
X148985000Y-120300000D01*
G75*
G02*
X148835000Y-120150000I0J150000D01*
G01*
G37*
G36*
G01*
X148835000Y-121420000D02*
X148835000Y-121120000D01*
G75*
G02*
X148985000Y-120970000I150000J0D01*
G01*
X150735000Y-120970000D01*
G75*
G02*
X150885000Y-121120000I0J-150000D01*
G01*
X150885000Y-121420000D01*
G75*
G02*
X150735000Y-121570000I-150000J0D01*
G01*
X148985000Y-121570000D01*
G75*
G02*
X148835000Y-121420000I0J150000D01*
G01*
G37*
G36*
G01*
X148835000Y-122690000D02*
X148835000Y-122390000D01*
G75*
G02*
X148985000Y-122240000I150000J0D01*
G01*
X150735000Y-122240000D01*
G75*
G02*
X150885000Y-122390000I0J-150000D01*
G01*
X150885000Y-122690000D01*
G75*
G02*
X150735000Y-122840000I-150000J0D01*
G01*
X148985000Y-122840000D01*
G75*
G02*
X148835000Y-122690000I0J150000D01*
G01*
G37*
G36*
G01*
X148835000Y-123960000D02*
X148835000Y-123660000D01*
G75*
G02*
X148985000Y-123510000I150000J0D01*
G01*
X150735000Y-123510000D01*
G75*
G02*
X150885000Y-123660000I0J-150000D01*
G01*
X150885000Y-123960000D01*
G75*
G02*
X150735000Y-124110000I-150000J0D01*
G01*
X148985000Y-124110000D01*
G75*
G02*
X148835000Y-123960000I0J150000D01*
G01*
G37*
G36*
G01*
X148835000Y-125230000D02*
X148835000Y-124930000D01*
G75*
G02*
X148985000Y-124780000I150000J0D01*
G01*
X150735000Y-124780000D01*
G75*
G02*
X150885000Y-124930000I0J-150000D01*
G01*
X150885000Y-125230000D01*
G75*
G02*
X150735000Y-125380000I-150000J0D01*
G01*
X148985000Y-125380000D01*
G75*
G02*
X148835000Y-125230000I0J150000D01*
G01*
G37*
G36*
G01*
X148835000Y-126500000D02*
X148835000Y-126200000D01*
G75*
G02*
X148985000Y-126050000I150000J0D01*
G01*
X150735000Y-126050000D01*
G75*
G02*
X150885000Y-126200000I0J-150000D01*
G01*
X150885000Y-126500000D01*
G75*
G02*
X150735000Y-126650000I-150000J0D01*
G01*
X148985000Y-126650000D01*
G75*
G02*
X148835000Y-126500000I0J150000D01*
G01*
G37*
G36*
G01*
X139535000Y-126500000D02*
X139535000Y-126200000D01*
G75*
G02*
X139685000Y-126050000I150000J0D01*
G01*
X141435000Y-126050000D01*
G75*
G02*
X141585000Y-126200000I0J-150000D01*
G01*
X141585000Y-126500000D01*
G75*
G02*
X141435000Y-126650000I-150000J0D01*
G01*
X139685000Y-126650000D01*
G75*
G02*
X139535000Y-126500000I0J150000D01*
G01*
G37*
G36*
G01*
X139535000Y-125230000D02*
X139535000Y-124930000D01*
G75*
G02*
X139685000Y-124780000I150000J0D01*
G01*
X141435000Y-124780000D01*
G75*
G02*
X141585000Y-124930000I0J-150000D01*
G01*
X141585000Y-125230000D01*
G75*
G02*
X141435000Y-125380000I-150000J0D01*
G01*
X139685000Y-125380000D01*
G75*
G02*
X139535000Y-125230000I0J150000D01*
G01*
G37*
G36*
G01*
X139535000Y-123960000D02*
X139535000Y-123660000D01*
G75*
G02*
X139685000Y-123510000I150000J0D01*
G01*
X141435000Y-123510000D01*
G75*
G02*
X141585000Y-123660000I0J-150000D01*
G01*
X141585000Y-123960000D01*
G75*
G02*
X141435000Y-124110000I-150000J0D01*
G01*
X139685000Y-124110000D01*
G75*
G02*
X139535000Y-123960000I0J150000D01*
G01*
G37*
G36*
G01*
X139535000Y-122690000D02*
X139535000Y-122390000D01*
G75*
G02*
X139685000Y-122240000I150000J0D01*
G01*
X141435000Y-122240000D01*
G75*
G02*
X141585000Y-122390000I0J-150000D01*
G01*
X141585000Y-122690000D01*
G75*
G02*
X141435000Y-122840000I-150000J0D01*
G01*
X139685000Y-122840000D01*
G75*
G02*
X139535000Y-122690000I0J150000D01*
G01*
G37*
G36*
G01*
X139535000Y-121420000D02*
X139535000Y-121120000D01*
G75*
G02*
X139685000Y-120970000I150000J0D01*
G01*
X141435000Y-120970000D01*
G75*
G02*
X141585000Y-121120000I0J-150000D01*
G01*
X141585000Y-121420000D01*
G75*
G02*
X141435000Y-121570000I-150000J0D01*
G01*
X139685000Y-121570000D01*
G75*
G02*
X139535000Y-121420000I0J150000D01*
G01*
G37*
G36*
G01*
X139535000Y-120150000D02*
X139535000Y-119850000D01*
G75*
G02*
X139685000Y-119700000I150000J0D01*
G01*
X141435000Y-119700000D01*
G75*
G02*
X141585000Y-119850000I0J-150000D01*
G01*
X141585000Y-120150000D01*
G75*
G02*
X141435000Y-120300000I-150000J0D01*
G01*
X139685000Y-120300000D01*
G75*
G02*
X139535000Y-120150000I0J150000D01*
G01*
G37*
G36*
G01*
X139535000Y-118880000D02*
X139535000Y-118580000D01*
G75*
G02*
X139685000Y-118430000I150000J0D01*
G01*
X141435000Y-118430000D01*
G75*
G02*
X141585000Y-118580000I0J-150000D01*
G01*
X141585000Y-118880000D01*
G75*
G02*
X141435000Y-119030000I-150000J0D01*
G01*
X139685000Y-119030000D01*
G75*
G02*
X139535000Y-118880000I0J150000D01*
G01*
G37*
G36*
G01*
X139535000Y-117610000D02*
X139535000Y-117310000D01*
G75*
G02*
X139685000Y-117160000I150000J0D01*
G01*
X141435000Y-117160000D01*
G75*
G02*
X141585000Y-117310000I0J-150000D01*
G01*
X141585000Y-117610000D01*
G75*
G02*
X141435000Y-117760000I-150000J0D01*
G01*
X139685000Y-117760000D01*
G75*
G02*
X139535000Y-117610000I0J150000D01*
G01*
G37*
G36*
G01*
X139535000Y-116340000D02*
X139535000Y-116040000D01*
G75*
G02*
X139685000Y-115890000I150000J0D01*
G01*
X141435000Y-115890000D01*
G75*
G02*
X141585000Y-116040000I0J-150000D01*
G01*
X141585000Y-116340000D01*
G75*
G02*
X141435000Y-116490000I-150000J0D01*
G01*
X139685000Y-116490000D01*
G75*
G02*
X139535000Y-116340000I0J150000D01*
G01*
G37*
G36*
G01*
X139535000Y-115070000D02*
X139535000Y-114770000D01*
G75*
G02*
X139685000Y-114620000I150000J0D01*
G01*
X141435000Y-114620000D01*
G75*
G02*
X141585000Y-114770000I0J-150000D01*
G01*
X141585000Y-115070000D01*
G75*
G02*
X141435000Y-115220000I-150000J0D01*
G01*
X139685000Y-115220000D01*
G75*
G02*
X139535000Y-115070000I0J150000D01*
G01*
G37*
%TD*%
%TO.C,U1*%
G36*
G01*
X148625000Y-65705000D02*
X148625000Y-65405000D01*
G75*
G02*
X148775000Y-65255000I150000J0D01*
G01*
X150525000Y-65255000D01*
G75*
G02*
X150675000Y-65405000I0J-150000D01*
G01*
X150675000Y-65705000D01*
G75*
G02*
X150525000Y-65855000I-150000J0D01*
G01*
X148775000Y-65855000D01*
G75*
G02*
X148625000Y-65705000I0J150000D01*
G01*
G37*
G36*
G01*
X148625000Y-66975000D02*
X148625000Y-66675000D01*
G75*
G02*
X148775000Y-66525000I150000J0D01*
G01*
X150525000Y-66525000D01*
G75*
G02*
X150675000Y-66675000I0J-150000D01*
G01*
X150675000Y-66975000D01*
G75*
G02*
X150525000Y-67125000I-150000J0D01*
G01*
X148775000Y-67125000D01*
G75*
G02*
X148625000Y-66975000I0J150000D01*
G01*
G37*
G36*
G01*
X148625000Y-68245000D02*
X148625000Y-67945000D01*
G75*
G02*
X148775000Y-67795000I150000J0D01*
G01*
X150525000Y-67795000D01*
G75*
G02*
X150675000Y-67945000I0J-150000D01*
G01*
X150675000Y-68245000D01*
G75*
G02*
X150525000Y-68395000I-150000J0D01*
G01*
X148775000Y-68395000D01*
G75*
G02*
X148625000Y-68245000I0J150000D01*
G01*
G37*
G36*
G01*
X148625000Y-69515000D02*
X148625000Y-69215000D01*
G75*
G02*
X148775000Y-69065000I150000J0D01*
G01*
X150525000Y-69065000D01*
G75*
G02*
X150675000Y-69215000I0J-150000D01*
G01*
X150675000Y-69515000D01*
G75*
G02*
X150525000Y-69665000I-150000J0D01*
G01*
X148775000Y-69665000D01*
G75*
G02*
X148625000Y-69515000I0J150000D01*
G01*
G37*
G36*
G01*
X148625000Y-70785000D02*
X148625000Y-70485000D01*
G75*
G02*
X148775000Y-70335000I150000J0D01*
G01*
X150525000Y-70335000D01*
G75*
G02*
X150675000Y-70485000I0J-150000D01*
G01*
X150675000Y-70785000D01*
G75*
G02*
X150525000Y-70935000I-150000J0D01*
G01*
X148775000Y-70935000D01*
G75*
G02*
X148625000Y-70785000I0J150000D01*
G01*
G37*
G36*
G01*
X148625000Y-72055000D02*
X148625000Y-71755000D01*
G75*
G02*
X148775000Y-71605000I150000J0D01*
G01*
X150525000Y-71605000D01*
G75*
G02*
X150675000Y-71755000I0J-150000D01*
G01*
X150675000Y-72055000D01*
G75*
G02*
X150525000Y-72205000I-150000J0D01*
G01*
X148775000Y-72205000D01*
G75*
G02*
X148625000Y-72055000I0J150000D01*
G01*
G37*
G36*
G01*
X148625000Y-73325000D02*
X148625000Y-73025000D01*
G75*
G02*
X148775000Y-72875000I150000J0D01*
G01*
X150525000Y-72875000D01*
G75*
G02*
X150675000Y-73025000I0J-150000D01*
G01*
X150675000Y-73325000D01*
G75*
G02*
X150525000Y-73475000I-150000J0D01*
G01*
X148775000Y-73475000D01*
G75*
G02*
X148625000Y-73325000I0J150000D01*
G01*
G37*
G36*
G01*
X148625000Y-74595000D02*
X148625000Y-74295000D01*
G75*
G02*
X148775000Y-74145000I150000J0D01*
G01*
X150525000Y-74145000D01*
G75*
G02*
X150675000Y-74295000I0J-150000D01*
G01*
X150675000Y-74595000D01*
G75*
G02*
X150525000Y-74745000I-150000J0D01*
G01*
X148775000Y-74745000D01*
G75*
G02*
X148625000Y-74595000I0J150000D01*
G01*
G37*
G36*
G01*
X139325000Y-74595000D02*
X139325000Y-74295000D01*
G75*
G02*
X139475000Y-74145000I150000J0D01*
G01*
X141225000Y-74145000D01*
G75*
G02*
X141375000Y-74295000I0J-150000D01*
G01*
X141375000Y-74595000D01*
G75*
G02*
X141225000Y-74745000I-150000J0D01*
G01*
X139475000Y-74745000D01*
G75*
G02*
X139325000Y-74595000I0J150000D01*
G01*
G37*
G36*
G01*
X139325000Y-73325000D02*
X139325000Y-73025000D01*
G75*
G02*
X139475000Y-72875000I150000J0D01*
G01*
X141225000Y-72875000D01*
G75*
G02*
X141375000Y-73025000I0J-150000D01*
G01*
X141375000Y-73325000D01*
G75*
G02*
X141225000Y-73475000I-150000J0D01*
G01*
X139475000Y-73475000D01*
G75*
G02*
X139325000Y-73325000I0J150000D01*
G01*
G37*
G36*
G01*
X139325000Y-72055000D02*
X139325000Y-71755000D01*
G75*
G02*
X139475000Y-71605000I150000J0D01*
G01*
X141225000Y-71605000D01*
G75*
G02*
X141375000Y-71755000I0J-150000D01*
G01*
X141375000Y-72055000D01*
G75*
G02*
X141225000Y-72205000I-150000J0D01*
G01*
X139475000Y-72205000D01*
G75*
G02*
X139325000Y-72055000I0J150000D01*
G01*
G37*
G36*
G01*
X139325000Y-70785000D02*
X139325000Y-70485000D01*
G75*
G02*
X139475000Y-70335000I150000J0D01*
G01*
X141225000Y-70335000D01*
G75*
G02*
X141375000Y-70485000I0J-150000D01*
G01*
X141375000Y-70785000D01*
G75*
G02*
X141225000Y-70935000I-150000J0D01*
G01*
X139475000Y-70935000D01*
G75*
G02*
X139325000Y-70785000I0J150000D01*
G01*
G37*
G36*
G01*
X139325000Y-69515000D02*
X139325000Y-69215000D01*
G75*
G02*
X139475000Y-69065000I150000J0D01*
G01*
X141225000Y-69065000D01*
G75*
G02*
X141375000Y-69215000I0J-150000D01*
G01*
X141375000Y-69515000D01*
G75*
G02*
X141225000Y-69665000I-150000J0D01*
G01*
X139475000Y-69665000D01*
G75*
G02*
X139325000Y-69515000I0J150000D01*
G01*
G37*
G36*
G01*
X139325000Y-68245000D02*
X139325000Y-67945000D01*
G75*
G02*
X139475000Y-67795000I150000J0D01*
G01*
X141225000Y-67795000D01*
G75*
G02*
X141375000Y-67945000I0J-150000D01*
G01*
X141375000Y-68245000D01*
G75*
G02*
X141225000Y-68395000I-150000J0D01*
G01*
X139475000Y-68395000D01*
G75*
G02*
X139325000Y-68245000I0J150000D01*
G01*
G37*
G36*
G01*
X139325000Y-66975000D02*
X139325000Y-66675000D01*
G75*
G02*
X139475000Y-66525000I150000J0D01*
G01*
X141225000Y-66525000D01*
G75*
G02*
X141375000Y-66675000I0J-150000D01*
G01*
X141375000Y-66975000D01*
G75*
G02*
X141225000Y-67125000I-150000J0D01*
G01*
X139475000Y-67125000D01*
G75*
G02*
X139325000Y-66975000I0J150000D01*
G01*
G37*
G36*
G01*
X139325000Y-65705000D02*
X139325000Y-65405000D01*
G75*
G02*
X139475000Y-65255000I150000J0D01*
G01*
X141225000Y-65255000D01*
G75*
G02*
X141375000Y-65405000I0J-150000D01*
G01*
X141375000Y-65705000D01*
G75*
G02*
X141225000Y-65855000I-150000J0D01*
G01*
X139475000Y-65855000D01*
G75*
G02*
X139325000Y-65705000I0J150000D01*
G01*
G37*
%TD*%
D15*
%TO.C,SW2*%
X193040000Y-121715000D03*
X193040000Y-118315000D03*
%TD*%
%TO.C,SW1*%
X97028000Y-118315000D03*
X97028000Y-121715000D03*
%TD*%
%TO.C,R10*%
G36*
G01*
X165216000Y-91576997D02*
X165216000Y-92827003D01*
G75*
G02*
X164966003Y-93077000I-249997J0D01*
G01*
X164340997Y-93077000D01*
G75*
G02*
X164091000Y-92827003I0J249997D01*
G01*
X164091000Y-91576997D01*
G75*
G02*
X164340997Y-91327000I249997J0D01*
G01*
X164966003Y-91327000D01*
G75*
G02*
X165216000Y-91576997I0J-249997D01*
G01*
G37*
G36*
G01*
X168141000Y-91576997D02*
X168141000Y-92827003D01*
G75*
G02*
X167891003Y-93077000I-249997J0D01*
G01*
X167265997Y-93077000D01*
G75*
G02*
X167016000Y-92827003I0J249997D01*
G01*
X167016000Y-91576997D01*
G75*
G02*
X167265997Y-91327000I249997J0D01*
G01*
X167891003Y-91327000D01*
G75*
G02*
X168141000Y-91576997I0J-249997D01*
G01*
G37*
%TD*%
%TO.C,R9*%
G36*
G01*
X172604000Y-88255003D02*
X172604000Y-87004997D01*
G75*
G02*
X172853997Y-86755000I249997J0D01*
G01*
X173479003Y-86755000D01*
G75*
G02*
X173729000Y-87004997I0J-249997D01*
G01*
X173729000Y-88255003D01*
G75*
G02*
X173479003Y-88505000I-249997J0D01*
G01*
X172853997Y-88505000D01*
G75*
G02*
X172604000Y-88255003I0J249997D01*
G01*
G37*
G36*
G01*
X169679000Y-88255003D02*
X169679000Y-87004997D01*
G75*
G02*
X169928997Y-86755000I249997J0D01*
G01*
X170554003Y-86755000D01*
G75*
G02*
X170804000Y-87004997I0J-249997D01*
G01*
X170804000Y-88255003D01*
G75*
G02*
X170554003Y-88505000I-249997J0D01*
G01*
X169928997Y-88505000D01*
G75*
G02*
X169679000Y-88255003I0J249997D01*
G01*
G37*
%TD*%
%TO.C,R8*%
G36*
G01*
X165216000Y-87004997D02*
X165216000Y-88255003D01*
G75*
G02*
X164966003Y-88505000I-249997J0D01*
G01*
X164340997Y-88505000D01*
G75*
G02*
X164091000Y-88255003I0J249997D01*
G01*
X164091000Y-87004997D01*
G75*
G02*
X164340997Y-86755000I249997J0D01*
G01*
X164966003Y-86755000D01*
G75*
G02*
X165216000Y-87004997I0J-249997D01*
G01*
G37*
G36*
G01*
X168141000Y-87004997D02*
X168141000Y-88255003D01*
G75*
G02*
X167891003Y-88505000I-249997J0D01*
G01*
X167265997Y-88505000D01*
G75*
G02*
X167016000Y-88255003I0J249997D01*
G01*
X167016000Y-87004997D01*
G75*
G02*
X167265997Y-86755000I249997J0D01*
G01*
X167891003Y-86755000D01*
G75*
G02*
X168141000Y-87004997I0J-249997D01*
G01*
G37*
%TD*%
%TO.C,R7*%
G36*
G01*
X146694997Y-142062500D02*
X147945003Y-142062500D01*
G75*
G02*
X148195000Y-142312497I0J-249997D01*
G01*
X148195000Y-142937503D01*
G75*
G02*
X147945003Y-143187500I-249997J0D01*
G01*
X146694997Y-143187500D01*
G75*
G02*
X146445000Y-142937503I0J249997D01*
G01*
X146445000Y-142312497D01*
G75*
G02*
X146694997Y-142062500I249997J0D01*
G01*
G37*
G36*
G01*
X146694997Y-139137500D02*
X147945003Y-139137500D01*
G75*
G02*
X148195000Y-139387497I0J-249997D01*
G01*
X148195000Y-140012503D01*
G75*
G02*
X147945003Y-140262500I-249997J0D01*
G01*
X146694997Y-140262500D01*
G75*
G02*
X146445000Y-140012503I0J249997D01*
G01*
X146445000Y-139387497D01*
G75*
G02*
X146694997Y-139137500I249997J0D01*
G01*
G37*
%TD*%
%TO.C,R6*%
G36*
G01*
X142865003Y-140262500D02*
X141614997Y-140262500D01*
G75*
G02*
X141365000Y-140012503I0J249997D01*
G01*
X141365000Y-139387497D01*
G75*
G02*
X141614997Y-139137500I249997J0D01*
G01*
X142865003Y-139137500D01*
G75*
G02*
X143115000Y-139387497I0J-249997D01*
G01*
X143115000Y-140012503D01*
G75*
G02*
X142865003Y-140262500I-249997J0D01*
G01*
G37*
G36*
G01*
X142865003Y-143187500D02*
X141614997Y-143187500D01*
G75*
G02*
X141365000Y-142937503I0J249997D01*
G01*
X141365000Y-142312497D01*
G75*
G02*
X141614997Y-142062500I249997J0D01*
G01*
X142865003Y-142062500D01*
G75*
G02*
X143115000Y-142312497I0J-249997D01*
G01*
X143115000Y-142937503D01*
G75*
G02*
X142865003Y-143187500I-249997J0D01*
G01*
G37*
%TD*%
%TO.C,R5*%
G36*
G01*
X158187500Y-88255003D02*
X158187500Y-87004997D01*
G75*
G02*
X158437497Y-86755000I249997J0D01*
G01*
X159062503Y-86755000D01*
G75*
G02*
X159312500Y-87004997I0J-249997D01*
G01*
X159312500Y-88255003D01*
G75*
G02*
X159062503Y-88505000I-249997J0D01*
G01*
X158437497Y-88505000D01*
G75*
G02*
X158187500Y-88255003I0J249997D01*
G01*
G37*
G36*
G01*
X155262500Y-88255003D02*
X155262500Y-87004997D01*
G75*
G02*
X155512497Y-86755000I249997J0D01*
G01*
X156137503Y-86755000D01*
G75*
G02*
X156387500Y-87004997I0J-249997D01*
G01*
X156387500Y-88255003D01*
G75*
G02*
X156137503Y-88505000I-249997J0D01*
G01*
X155512497Y-88505000D01*
G75*
G02*
X155262500Y-88255003I0J249997D01*
G01*
G37*
%TD*%
%TO.C,R4*%
G36*
G01*
X138121500Y-88125003D02*
X138121500Y-86874997D01*
G75*
G02*
X138371497Y-86625000I249997J0D01*
G01*
X138996503Y-86625000D01*
G75*
G02*
X139246500Y-86874997I0J-249997D01*
G01*
X139246500Y-88125003D01*
G75*
G02*
X138996503Y-88375000I-249997J0D01*
G01*
X138371497Y-88375000D01*
G75*
G02*
X138121500Y-88125003I0J249997D01*
G01*
G37*
G36*
G01*
X135196500Y-88125003D02*
X135196500Y-86874997D01*
G75*
G02*
X135446497Y-86625000I249997J0D01*
G01*
X136071503Y-86625000D01*
G75*
G02*
X136321500Y-86874997I0J-249997D01*
G01*
X136321500Y-88125003D01*
G75*
G02*
X136071503Y-88375000I-249997J0D01*
G01*
X135446497Y-88375000D01*
G75*
G02*
X135196500Y-88125003I0J249997D01*
G01*
G37*
%TD*%
%TO.C,R3*%
G36*
G01*
X162930000Y-145424997D02*
X162930000Y-146675003D01*
G75*
G02*
X162680003Y-146925000I-249997J0D01*
G01*
X162054997Y-146925000D01*
G75*
G02*
X161805000Y-146675003I0J249997D01*
G01*
X161805000Y-145424997D01*
G75*
G02*
X162054997Y-145175000I249997J0D01*
G01*
X162680003Y-145175000D01*
G75*
G02*
X162930000Y-145424997I0J-249997D01*
G01*
G37*
G36*
G01*
X165855000Y-145424997D02*
X165855000Y-146675003D01*
G75*
G02*
X165605003Y-146925000I-249997J0D01*
G01*
X164979997Y-146925000D01*
G75*
G02*
X164730000Y-146675003I0J249997D01*
G01*
X164730000Y-145424997D01*
G75*
G02*
X164979997Y-145175000I249997J0D01*
G01*
X165605003Y-145175000D01*
G75*
G02*
X165855000Y-145424997I0J-249997D01*
G01*
G37*
%TD*%
%TO.C,R2*%
G36*
G01*
X162737500Y-140344997D02*
X162737500Y-141595003D01*
G75*
G02*
X162487503Y-141845000I-249997J0D01*
G01*
X161862497Y-141845000D01*
G75*
G02*
X161612500Y-141595003I0J249997D01*
G01*
X161612500Y-140344997D01*
G75*
G02*
X161862497Y-140095000I249997J0D01*
G01*
X162487503Y-140095000D01*
G75*
G02*
X162737500Y-140344997I0J-249997D01*
G01*
G37*
G36*
G01*
X165662500Y-140344997D02*
X165662500Y-141595003D01*
G75*
G02*
X165412503Y-141845000I-249997J0D01*
G01*
X164787497Y-141845000D01*
G75*
G02*
X164537500Y-141595003I0J249997D01*
G01*
X164537500Y-140344997D01*
G75*
G02*
X164787497Y-140095000I249997J0D01*
G01*
X165412503Y-140095000D01*
G75*
G02*
X165662500Y-140344997I0J-249997D01*
G01*
G37*
%TD*%
%TO.C,R1*%
G36*
G01*
X151755003Y-140262500D02*
X150504997Y-140262500D01*
G75*
G02*
X150255000Y-140012503I0J249997D01*
G01*
X150255000Y-139387497D01*
G75*
G02*
X150504997Y-139137500I249997J0D01*
G01*
X151755003Y-139137500D01*
G75*
G02*
X152005000Y-139387497I0J-249997D01*
G01*
X152005000Y-140012503D01*
G75*
G02*
X151755003Y-140262500I-249997J0D01*
G01*
G37*
G36*
G01*
X151755003Y-143187500D02*
X150504997Y-143187500D01*
G75*
G02*
X150255000Y-142937503I0J249997D01*
G01*
X150255000Y-142312497D01*
G75*
G02*
X150504997Y-142062500I249997J0D01*
G01*
X151755003Y-142062500D01*
G75*
G02*
X152005000Y-142312497I0J-249997D01*
G01*
X152005000Y-142937503D01*
G75*
G02*
X151755003Y-143187500I-249997J0D01*
G01*
G37*
%TD*%
D16*
%TO.C,J2*%
X127000000Y-114046000D03*
X128270000Y-114046000D03*
X129540000Y-114046000D03*
X130810000Y-114046000D03*
X132080000Y-114046000D03*
D17*
X133350000Y-114046000D03*
%TD*%
D18*
%TO.C,J1*%
X148250000Y-147085000D03*
X147450000Y-147085000D03*
X142550000Y-147085000D03*
X141750000Y-147085000D03*
X141750000Y-147085000D03*
X142550000Y-147085000D03*
X147450000Y-147085000D03*
X148250000Y-147085000D03*
D19*
X143250000Y-147085000D03*
X143750000Y-147085000D03*
X144250000Y-147085000D03*
X145250000Y-147085000D03*
X145750000Y-147085000D03*
X146250000Y-147085000D03*
X146750000Y-147085000D03*
X144750000Y-147085000D03*
D20*
X149320000Y-148000000D03*
X140680000Y-148000000D03*
D21*
X142110000Y-148530000D03*
D22*
X140680000Y-152180000D03*
D21*
X147890000Y-148530000D03*
D22*
X149320000Y-152180000D03*
%TD*%
D23*
%TO.C,D2*%
X157480000Y-139700000D03*
X157480000Y-143000000D03*
%TD*%
%TO.C,D1*%
X157480000Y-150620000D03*
X157480000Y-147320000D03*
%TD*%
%TO.C,C7*%
G36*
G01*
X144330000Y-87155000D02*
X144330000Y-88105000D01*
G75*
G02*
X144080000Y-88355000I-250000J0D01*
G01*
X143580000Y-88355000D01*
G75*
G02*
X143330000Y-88105000I0J250000D01*
G01*
X143330000Y-87155000D01*
G75*
G02*
X143580000Y-86905000I250000J0D01*
G01*
X144080000Y-86905000D01*
G75*
G02*
X144330000Y-87155000I0J-250000D01*
G01*
G37*
G36*
G01*
X146230000Y-87155000D02*
X146230000Y-88105000D01*
G75*
G02*
X145980000Y-88355000I-250000J0D01*
G01*
X145480000Y-88355000D01*
G75*
G02*
X145230000Y-88105000I0J250000D01*
G01*
X145230000Y-87155000D01*
G75*
G02*
X145480000Y-86905000I250000J0D01*
G01*
X145980000Y-86905000D01*
G75*
G02*
X146230000Y-87155000I0J-250000D01*
G01*
G37*
%TD*%
%TO.C,C6*%
G36*
G01*
X162060000Y-122395000D02*
X162060000Y-121445000D01*
G75*
G02*
X162310000Y-121195000I250000J0D01*
G01*
X162810000Y-121195000D01*
G75*
G02*
X163060000Y-121445000I0J-250000D01*
G01*
X163060000Y-122395000D01*
G75*
G02*
X162810000Y-122645000I-250000J0D01*
G01*
X162310000Y-122645000D01*
G75*
G02*
X162060000Y-122395000I0J250000D01*
G01*
G37*
G36*
G01*
X160160000Y-122395000D02*
X160160000Y-121445000D01*
G75*
G02*
X160410000Y-121195000I250000J0D01*
G01*
X160910000Y-121195000D01*
G75*
G02*
X161160000Y-121445000I0J-250000D01*
G01*
X161160000Y-122395000D01*
G75*
G02*
X160910000Y-122645000I-250000J0D01*
G01*
X160410000Y-122645000D01*
G75*
G02*
X160160000Y-122395000I0J250000D01*
G01*
G37*
%TD*%
%TO.C,C5*%
G36*
G01*
X150965000Y-88280001D02*
X150965000Y-86979999D01*
G75*
G02*
X151214999Y-86730000I249999J0D01*
G01*
X151865001Y-86730000D01*
G75*
G02*
X152115000Y-86979999I0J-249999D01*
G01*
X152115000Y-88280001D01*
G75*
G02*
X151865001Y-88530000I-249999J0D01*
G01*
X151214999Y-88530000D01*
G75*
G02*
X150965000Y-88280001I0J249999D01*
G01*
G37*
G36*
G01*
X148015000Y-88280001D02*
X148015000Y-86979999D01*
G75*
G02*
X148264999Y-86730000I249999J0D01*
G01*
X148915001Y-86730000D01*
G75*
G02*
X149165000Y-86979999I0J-249999D01*
G01*
X149165000Y-88280001D01*
G75*
G02*
X148915001Y-88530000I-249999J0D01*
G01*
X148264999Y-88530000D01*
G75*
G02*
X148015000Y-88280001I0J249999D01*
G01*
G37*
%TD*%
%TO.C,C4*%
G36*
G01*
X162060000Y-126205000D02*
X162060000Y-125255000D01*
G75*
G02*
X162310000Y-125005000I250000J0D01*
G01*
X162810000Y-125005000D01*
G75*
G02*
X163060000Y-125255000I0J-250000D01*
G01*
X163060000Y-126205000D01*
G75*
G02*
X162810000Y-126455000I-250000J0D01*
G01*
X162310000Y-126455000D01*
G75*
G02*
X162060000Y-126205000I0J250000D01*
G01*
G37*
G36*
G01*
X160160000Y-126205000D02*
X160160000Y-125255000D01*
G75*
G02*
X160410000Y-125005000I250000J0D01*
G01*
X160910000Y-125005000D01*
G75*
G02*
X161160000Y-125255000I0J-250000D01*
G01*
X161160000Y-126205000D01*
G75*
G02*
X160910000Y-126455000I-250000J0D01*
G01*
X160410000Y-126455000D01*
G75*
G02*
X160160000Y-126205000I0J250000D01*
G01*
G37*
%TD*%
%TO.C,C3*%
G36*
G01*
X145900000Y-61610001D02*
X145900000Y-60309999D01*
G75*
G02*
X146149999Y-60060000I249999J0D01*
G01*
X146800001Y-60060000D01*
G75*
G02*
X147050000Y-60309999I0J-249999D01*
G01*
X147050000Y-61610001D01*
G75*
G02*
X146800001Y-61860000I-249999J0D01*
G01*
X146149999Y-61860000D01*
G75*
G02*
X145900000Y-61610001I0J249999D01*
G01*
G37*
G36*
G01*
X142950000Y-61610001D02*
X142950000Y-60309999D01*
G75*
G02*
X143199999Y-60060000I249999J0D01*
G01*
X143850001Y-60060000D01*
G75*
G02*
X144100000Y-60309999I0J-249999D01*
G01*
X144100000Y-61610001D01*
G75*
G02*
X143850001Y-61860000I-249999J0D01*
G01*
X143199999Y-61860000D01*
G75*
G02*
X142950000Y-61610001I0J249999D01*
G01*
G37*
%TD*%
%TO.C,C2*%
G36*
G01*
X135239999Y-121345000D02*
X136540001Y-121345000D01*
G75*
G02*
X136790000Y-121594999I0J-249999D01*
G01*
X136790000Y-122245001D01*
G75*
G02*
X136540001Y-122495000I-249999J0D01*
G01*
X135239999Y-122495000D01*
G75*
G02*
X134990000Y-122245001I0J249999D01*
G01*
X134990000Y-121594999D01*
G75*
G02*
X135239999Y-121345000I249999J0D01*
G01*
G37*
G36*
G01*
X135239999Y-118395000D02*
X136540001Y-118395000D01*
G75*
G02*
X136790000Y-118644999I0J-249999D01*
G01*
X136790000Y-119295001D01*
G75*
G02*
X136540001Y-119545000I-249999J0D01*
G01*
X135239999Y-119545000D01*
G75*
G02*
X134990000Y-119295001I0J249999D01*
G01*
X134990000Y-118644999D01*
G75*
G02*
X135239999Y-118395000I249999J0D01*
G01*
G37*
%TD*%
%TO.C,C1*%
G36*
G01*
X153019999Y-147155000D02*
X154320001Y-147155000D01*
G75*
G02*
X154570000Y-147404999I0J-249999D01*
G01*
X154570000Y-148055001D01*
G75*
G02*
X154320001Y-148305000I-249999J0D01*
G01*
X153019999Y-148305000D01*
G75*
G02*
X152770000Y-148055001I0J249999D01*
G01*
X152770000Y-147404999D01*
G75*
G02*
X153019999Y-147155000I249999J0D01*
G01*
G37*
G36*
G01*
X153019999Y-144205000D02*
X154320001Y-144205000D01*
G75*
G02*
X154570000Y-144454999I0J-249999D01*
G01*
X154570000Y-145105001D01*
G75*
G02*
X154320001Y-145355000I-249999J0D01*
G01*
X153019999Y-145355000D01*
G75*
G02*
X152770000Y-145105001I0J249999D01*
G01*
X152770000Y-144454999D01*
G75*
G02*
X153019999Y-144205000I249999J0D01*
G01*
G37*
%TD*%
D24*
%TO.C,BT1*%
X145034000Y-44196000D03*
D25*
X152934000Y-44196000D03*
X137134000Y-44196000D03*
%TD*%
M02*
