M48
; DRILL file {KiCad (5.1.9)-1} date 12/23/21 21:14:18
; FORMAT={-:-/ absolute / metric / decimal}
; #@! TF.CreationDate,2021-12-23T21:14:18+01:00
; #@! TF.GenerationSoftware,Kicad,Pcbnew,(5.1.9)-1
; #@! TF.FileFunction,Plated,1,2,PTH
FMAT,2
METRIC
T1C0.300
T2C0.400
T3C0.600
T4C0.650
%
G90
G05
T1
X123.952Y-114.808
X125.73Y-116.84
X129.794Y-106.68
X131.064Y-105.664
X134.874Y-93.472
X135.767Y-116.773
X135.89Y-95.758
X137.16Y-69.723
X137.16Y-92.964
X137.16Y-111.887
X138.425Y-92.964
X139.573Y-92.964
X142.53Y-90.05
X142.53Y-91.35
X142.53Y-92.65
X142.53Y-93.95
X142.53Y-95.25
X142.53Y-96.55
X142.53Y-97.85
X142.53Y-99.15
X142.53Y-100.45
X144.03Y-90.05
X144.03Y-91.35
X144.03Y-92.65
X144.03Y-93.95
X144.03Y-95.25
X144.03Y-96.55
X144.03Y-97.85
X144.03Y-99.15
X144.03Y-100.45
X145.53Y-90.05
X145.53Y-91.35
X145.53Y-92.65
X145.53Y-93.95
X145.53Y-95.25
X145.53Y-96.55
X145.53Y-97.85
X145.53Y-99.15
X145.53Y-100.45
X145.923Y-116.84
X147.03Y-90.05
X147.03Y-91.35
X147.03Y-92.65
X147.03Y-93.95
X147.03Y-95.25
X147.03Y-96.55
X147.03Y-97.85
X147.03Y-99.15
X147.03Y-100.45
X148.59Y-103.124
X154.178Y-113.538
X154.94Y-90.17
X156.21Y-116.84
X158.11Y-97.922
X160.528Y-97.282
X161.036Y-95.25
X161.29Y-100.076
X161.29Y-111.76
T2
X103.984Y-122.78
X109.22Y-123.952
X125.984Y-106.68
X127.0Y-105.41
X128.27Y-104.14
X129.54Y-103.124
X130.048Y-116.84
X130.048Y-118.364
X131.572Y-101.092
X132.084Y-121.98
X132.461Y-87.884
X133.096Y-116.84
X133.35Y-118.364
X134.0Y-128.0
X134.112Y-100.457
X134.624Y-87.159
X136.144Y-99.695
X136.652Y-96.774
X136.906Y-98.044
X137.16Y-77.47
X138.43Y-123.19
X138.43Y-124.46
X138.938Y-100.965
X139.954Y-144.78
X140.462Y-143.764
X140.97Y-144.78
X142.0Y-63.0
X142.367Y-123.571
X142.494Y-117.475
X147.066Y-87.13
X147.32Y-126.111
X147.475Y-144.78
X147.832Y-121.666
X149.86Y-144.78
X150.0Y-90.0
X150.114Y-102.108
X150.622Y-63.5
X151.384Y-100.838
X151.638Y-92.71
X152.019Y-94.597
X152.4Y-99.822
X152.908Y-93.599
X153.67Y-98.806
X153.67Y-143.51
X160.659Y-131.378
X163.0Y-124.0
X163.0Y-129.0
X167.0Y-124.0
X167.64Y-89.916
X169.926Y-116.84
X173.228Y-116.84
T4
X127.0Y-114.046
X128.27Y-114.046
X129.54Y-114.046
X130.81Y-114.046
X132.08Y-114.046
X133.35Y-114.046
T3
G00X140.68Y-147.45
M15
G01X140.68Y-148.55
M16
G05
G00X140.68Y-151.88
M15
G01X140.68Y-152.48
M16
G05
G00X149.32Y-147.45
M15
G01X149.32Y-148.55
M16
G05
G00X149.32Y-151.88
M15
G01X149.32Y-152.48
M16
G05
T0
M30
