%TF.GenerationSoftware,KiCad,Pcbnew,(5.1.9)-1*%
%TF.CreationDate,2021-11-25T20:23:31+01:00*%
%TF.ProjectId,Berlin_Uhr,4265726c-696e-45f5-9568-722e6b696361,rev?*%
%TF.SameCoordinates,Original*%
%TF.FileFunction,Profile,NP*%
%FSLAX46Y46*%
G04 Gerber Fmt 4.6, Leading zero omitted, Abs format (unit mm)*
G04 Created by KiCad (PCBNEW (5.1.9)-1) date 2021-11-25 20:23:31*
%MOMM*%
%LPD*%
G01*
G04 APERTURE LIST*
%TA.AperFunction,Profile*%
%ADD10C,0.050000*%
%TD*%
G04 APERTURE END LIST*
D10*
X137000000Y-60000000D02*
X105000000Y-60000000D01*
X190000000Y-60000000D02*
X175000000Y-60000000D01*
X135000000Y-135000000D02*
G75*
G02*
X135000000Y-130000000I0J2500000D01*
G01*
X135000000Y-135000000D02*
X145000000Y-135000000D01*
X145000000Y-130000000D02*
X135000000Y-130000000D01*
X145000000Y-135000000D02*
X155000000Y-135000000D01*
X155000000Y-130000000D02*
X145000000Y-130000000D01*
X155000000Y-130000000D02*
G75*
G02*
X155000000Y-135000000I0J-2500000D01*
G01*
X135000000Y-110000000D02*
G75*
G02*
X135000000Y-105000000I0J2500000D01*
G01*
X135000000Y-110000000D02*
X145000000Y-110000000D01*
X145000000Y-105000000D02*
X135000000Y-105000000D01*
X145000000Y-110000000D02*
X155000000Y-110000000D01*
X155000000Y-105000000D02*
X145000000Y-105000000D01*
X155000000Y-105000000D02*
G75*
G02*
X155000000Y-110000000I0J-2500000D01*
G01*
X155000000Y-80000000D02*
G75*
G02*
X155000000Y-85000000I0J-2500000D01*
G01*
X155000000Y-80000000D02*
X145000000Y-80000000D01*
X145000000Y-85000000D02*
X155000000Y-85000000D01*
X135000000Y-85000000D02*
G75*
G02*
X135000000Y-80000000I0J2500000D01*
G01*
X135000000Y-85000000D02*
X145000000Y-85000000D01*
X145000000Y-80000000D02*
X135000000Y-80000000D01*
X137000000Y-55000000D02*
G75*
G02*
X137000000Y-60000000I0J-2500000D01*
G01*
X153000000Y-60000000D02*
G75*
G02*
X153000000Y-55000000I0J2500000D01*
G01*
X100000000Y-155000000D02*
G75*
G02*
X95000000Y-150000000I0J5000000D01*
G01*
X100000000Y-105000000D02*
G75*
G02*
X95000000Y-100000000I0J5000000D01*
G01*
X95000000Y-125000000D02*
X95000000Y-115000000D01*
X110000000Y-105000000D02*
G75*
G02*
X110000000Y-110000000I0J-2500000D01*
G01*
X100000000Y-85000000D02*
X110000000Y-85000000D01*
X95000000Y-90000000D02*
G75*
G02*
X100000000Y-85000000I5000000J0D01*
G01*
X95000000Y-100000000D02*
X95000000Y-90000000D01*
X100000000Y-135000000D02*
X110000000Y-135000000D01*
X95000000Y-140000000D02*
G75*
G02*
X100000000Y-135000000I5000000J0D01*
G01*
X110000000Y-105000000D02*
X100000000Y-105000000D01*
X95000000Y-150000000D02*
X95000000Y-140000000D01*
X100000000Y-130000000D02*
X110000000Y-130000000D01*
X95000000Y-115000000D02*
G75*
G02*
X100000000Y-110000000I5000000J0D01*
G01*
X100000000Y-80000000D02*
G75*
G02*
X95000000Y-75000000I0J5000000D01*
G01*
X110000000Y-130000000D02*
G75*
G02*
X110000000Y-135000000I0J-2500000D01*
G01*
X110000000Y-80000000D02*
G75*
G02*
X110000000Y-85000000I0J-2500000D01*
G01*
X100000000Y-110000000D02*
X110000000Y-110000000D01*
X100000000Y-130000000D02*
G75*
G02*
X95000000Y-125000000I0J5000000D01*
G01*
X100000000Y-80000000D02*
X110000000Y-80000000D01*
X95000000Y-75000000D02*
X95000000Y-65000000D01*
X190000000Y-135000000D02*
X180000000Y-135000000D01*
X180000000Y-110000000D02*
X190000000Y-110000000D01*
X190000000Y-85000000D02*
X180000000Y-85000000D01*
X190000000Y-155000000D02*
X100000000Y-155000000D01*
X195000000Y-150000000D02*
G75*
G02*
X190000000Y-155000000I-5000000J0D01*
G01*
X190000000Y-135000000D02*
G75*
G02*
X195000000Y-140000000I0J-5000000D01*
G01*
X195000000Y-140000000D02*
X195000000Y-150000000D01*
X190000000Y-130000000D02*
X180000000Y-130000000D01*
X195000000Y-125000000D02*
G75*
G02*
X190000000Y-130000000I-5000000J0D01*
G01*
X190000000Y-110000000D02*
G75*
G02*
X195000000Y-115000000I0J-5000000D01*
G01*
X195000000Y-115000000D02*
X195000000Y-125000000D01*
X180000000Y-135000000D02*
G75*
G02*
X180000000Y-130000000I0J2500000D01*
G01*
X190000000Y-105000000D02*
X180000000Y-105000000D01*
X195000000Y-100000000D02*
G75*
G02*
X190000000Y-105000000I-5000000J0D01*
G01*
X190000000Y-85000000D02*
G75*
G02*
X195000000Y-90000000I0J-5000000D01*
G01*
X195000000Y-90000000D02*
X195000000Y-100000000D01*
X180000000Y-110000000D02*
G75*
G02*
X180000000Y-105000000I0J2500000D01*
G01*
X180000000Y-85000000D02*
G75*
G02*
X180000000Y-80000000I0J2500000D01*
G01*
X190000000Y-80000000D02*
X180000000Y-80000000D01*
X195000000Y-75000000D02*
G75*
G02*
X190000000Y-80000000I-5000000J0D01*
G01*
X195000000Y-65000000D02*
X195000000Y-75000000D01*
X190000000Y-60000000D02*
G75*
G02*
X195000000Y-65000000I0J-5000000D01*
G01*
X105000000Y-60000000D02*
X100000000Y-60000000D01*
X95000000Y-65000000D02*
G75*
G02*
X100000000Y-60000000I5000000J0D01*
G01*
X153000000Y-60000000D02*
X175000000Y-60000000D01*
X137000000Y-55000000D02*
G75*
G02*
X153000000Y-55000000I8000000J14000000D01*
G01*
M02*
